<svg width="179" height="188" viewBox="0 0 179 188" fill="none" xmlns="http://www.w3.org/2000/svg">
<path d="M119.585 63.3849C117.973 66.0346 116.865 68.9867 116.322 72.0784C115.721 76.1968 115.784 80.392 116.509 84.4882C116.576 84.0728 116.621 83.7898 116.621 83.7898C116.949 81.6978 120.712 75.9113 123.443 74.254C123.764 74.0596 124.193 74.2855 124.349 74.8545C124.476 75.2988 124.523 75.7639 124.489 76.2263C124.472 76.3576 124.49 76.4913 124.541 76.6126C124.592 76.7339 124.674 76.8379 124.778 76.9133C124.882 76.9886 125.003 77.0323 125.129 77.0395C125.255 77.0466 125.381 77.017 125.491 76.9538C127.016 75.9768 129.639 73.6589 132.69 72.2241C134.817 71.8427 136.978 71.7095 139.133 71.8269C140.357 72.3245 145.999 74.3121 150.241 82.0832C150.646 82.8132 151.001 83.5815 151.406 84.3115C151.525 84.5399 151.662 84.7572 151.816 84.9607C151.89 85.0504 151.993 85.1075 152.105 85.1207C152.968 85.2422 153.846 85.1752 154.683 84.9238C155.337 84.4709 156.13 84.2979 156.902 84.4405C157.39 84.4853 157.859 84.6658 158.259 84.9634C158.659 85.261 158.977 85.6651 159.179 86.1342C159.286 86.3972 159.365 86.6719 159.414 86.9532C160.909 84.1476 161.069 79.0778 161.208 76.9021C161.334 74.846 161.156 72.7817 160.679 70.7829C159.737 66.8082 158.3 63.5522 155.362 60.7028L154.779 60.1377L151.723 57.8627C147.687 54.7197 142.715 53.1925 137.702 53.5558C130.488 53.9343 124.687 56.8615 120.799 61.6715C120.361 62.2156 119.955 62.7879 119.585 63.3849Z" fill="#85807F"/>
<path d="M147.468 102.911C147.893 104.41 148.404 105.881 148.997 107.315C149.588 108.503 150.477 109.498 151.568 110.194C153.695 111.658 156.157 112.598 158.498 113.6C158.738 113.668 158.993 113.633 159.209 113.504C159.425 113.375 159.584 113.162 159.651 112.911C159.711 112.659 159.676 112.393 159.554 112.167C159.432 111.942 159.232 111.774 158.995 111.699C156.845 110.87 154.764 109.855 152.773 108.666C151.878 108.14 151.144 107.357 150.657 106.409C150.112 105.101 149.65 103.757 149.274 102.385C148.884 101.194 147.071 101.705 147.466 102.909L147.468 102.911Z" fill="#211715"/>
<path d="M121.837 114.673C123.533 114.002 125.273 113.46 126.981 112.824C127.815 112.556 128.625 112.212 129.403 111.797C130.302 111.261 131.026 110.452 131.479 109.476C131.598 109.249 131.629 108.982 131.567 108.732C131.504 108.481 131.353 108.266 131.143 108.129C130.928 107.999 130.673 107.963 130.433 108.029C130.193 108.096 129.988 108.258 129.861 108.482C129.143 110.078 127.584 110.526 126.111 111.062C124.523 111.641 122.912 112.153 121.338 112.774C121.102 112.85 120.902 113.017 120.78 113.243C120.658 113.468 120.623 113.734 120.682 113.986C120.749 114.237 120.908 114.45 121.124 114.579C121.339 114.708 121.595 114.742 121.835 114.675L121.837 114.673Z" fill="#211715"/>
<path d="M154.697 61.3972C157.302 63.9499 158.822 67.165 159.705 70.7558C160.565 74.2604 160.361 77.9618 159.902 81.5225C159.681 83.2419 159.363 85.0665 158.529 86.588C157.926 87.6881 159.545 88.6804 160.148 87.5817C161.76 84.6442 161.909 80.9279 162.101 77.6237C162.375 73.4107 161.599 69.1954 159.851 65.3926C158.898 63.3661 157.6 61.5402 156.02 60.0053C155.139 59.1414 153.811 60.5305 154.695 61.3972H154.697Z" fill="#211715"/>
<path d="M138.882 72.7763C139.104 72.8664 139.328 72.9535 139.55 73.0465L139.775 73.1449C139.951 73.2207 139.599 73.0637 139.798 73.1553C139.983 73.2404 140.167 73.3261 140.35 73.4166C141.284 73.88 142.18 74.4233 143.03 75.041C145.666 77.0274 147.851 79.6016 149.428 82.5793C150.032 83.6759 151.653 82.6856 151.047 81.5855C148.704 77.3249 145.296 73.5924 140.976 71.56C140.451 71.3139 139.917 71.0944 139.38 70.8773C139.14 70.8099 138.885 70.8445 138.669 70.9734C138.453 71.1024 138.294 71.3154 138.227 71.5664C138.167 71.8181 138.201 72.0847 138.324 72.3103C138.446 72.536 138.646 72.7032 138.883 72.7773L138.882 72.7763Z" fill="#211715"/>
<path d="M117.524 84.051C117.75 82.7437 118.555 81.4999 119.278 80.3594C120.222 78.8225 121.339 77.4106 122.605 76.1544C122.836 75.9266 123.078 75.7117 123.33 75.5106C123.484 75.4161 123.631 75.3112 123.771 75.1965C123.884 75.0784 124.103 75.1178 123.684 75.103C123.349 75.0917 123.455 75.0887 123.5 75.3462C123.512 75.8739 123.567 76.3995 123.665 76.9173C123.756 77.177 123.906 77.4096 124.101 77.5956C124.296 77.7815 124.531 77.9153 124.786 77.9854C125.644 78.2212 126.388 77.5292 127.042 77.0478C127.755 76.5231 128.46 75.987 129.182 75.4727C131.148 74.0758 133.231 72.8088 135.561 72.2319C136.733 71.9415 136.238 70.0425 135.063 70.3334C132.883 70.9398 130.818 71.9331 128.958 73.2705C128.14 73.8257 127.345 74.4169 126.551 75.008C126.226 75.2497 125.902 75.4914 125.572 75.7252C125.439 75.8015 125.311 75.8894 125.192 75.988C125.131 76.0224 125.072 76.0611 125.016 76.1037C124.993 75.6843 125.43 76.2199 125.424 76.2263C125.521 76.1214 125.41 75.5007 125.394 75.3678C125.362 75.0432 125.294 74.7236 125.19 74.4159C125.101 74.1377 124.95 73.8862 124.748 73.6827C124.547 73.4793 124.302 73.3299 124.034 73.2474C123.141 73.0229 122.321 73.8228 121.691 74.3795C120.302 75.6696 119.078 77.1429 118.049 78.7627C117.122 80.1537 116.012 81.8203 115.717 83.5273C115.503 84.7662 117.31 85.2993 117.524 84.051H117.524Z" fill="#211715"/>
<path d="M129.157 100.382C130.133 100.89 131.214 101.136 132.302 101.097C132.835 101.094 133.366 101.021 133.882 100.88C134.466 100.669 135.034 100.411 135.581 100.107C135.795 99.9747 135.95 99.7587 136.013 99.5063C136.076 99.254 136.041 98.9857 135.917 98.76C135.786 98.5402 135.581 98.3812 135.342 98.3156C135.104 98.2499 134.851 98.2827 134.634 98.4071C134.397 98.5188 134.166 98.6429 133.931 98.7615L133.761 98.8462C133.501 98.9746 133.844 98.8186 133.697 98.8752C133.603 98.9102 133.512 98.9431 133.418 98.9712C133.324 98.9992 133.225 99.0243 133.128 99.0455C133.078 99.0563 133.027 99.0667 132.976 99.076C132.955 99.08 132.789 99.107 132.907 99.0893C133.025 99.0716 132.854 99.0942 132.833 99.0967C132.779 99.1026 132.726 99.107 132.672 99.1115C132.549 99.121 132.426 99.1266 132.302 99.1282C132.08 99.1316 131.857 99.1238 131.635 99.1046C131.58 99.0997 131.524 99.0937 131.469 99.0883C131.375 99.079 131.381 99.077 131.469 99.0883C131.361 99.0721 131.254 99.0534 131.147 99.0312C130.928 98.987 130.713 98.9288 130.501 98.857C130.454 98.8407 130.408 98.8235 130.361 98.8078C130.339 98.7994 130.185 98.7403 130.304 98.7876C130.422 98.8348 130.276 98.7738 130.254 98.7625C130.203 98.7359 130.152 98.7098 130.102 98.6818C129.995 98.6165 129.878 98.5739 129.756 98.5563C129.634 98.5388 129.51 98.5466 129.391 98.5794C129.272 98.6122 129.16 98.6693 129.062 98.7474C128.964 98.8256 128.881 98.9233 128.819 99.0349C128.757 99.1466 128.716 99.27 128.7 99.3981C128.683 99.5262 128.69 99.6565 128.722 99.7816C128.753 99.9066 128.807 100.024 128.882 100.127C128.956 100.23 129.049 100.317 129.155 100.382L129.157 100.382Z" fill="#211715"/>
<path d="M135.896 88.4421C135.642 87.404 135.943 85.0601 137.797 84.9508C140.234 85.0871 140.239 87.9391 139.357 89.2365C138.636 90.2987 136.639 90.6566 135.896 88.4421Z" fill="#211715"/>
<path d="M121.392 88.2044C121.161 87.1634 121.439 84.8116 123.138 84.6993C125.371 84.8322 125.369 87.6935 124.561 88.9964C123.898 90.063 122.069 90.4248 121.392 88.2044Z" fill="#211715"/>
<path d="M128.914 90.7186C128.594 91.2689 128.285 91.829 128.012 92.4064C127.861 92.6918 127.765 93.0058 127.731 93.3303C127.72 93.5274 127.751 93.7246 127.821 93.9076C127.891 94.0907 127.999 94.2551 128.137 94.389C128.362 94.6175 128.633 94.7877 128.931 94.8862C129.13 94.9368 129.333 94.9682 129.537 94.9802L129.288 94.9452C129.304 94.9452 129.32 94.9497 129.335 94.9526C129.579 95.014 129.836 94.9789 130.057 94.8542C130.272 94.7224 130.428 94.5065 130.491 94.2539C130.554 94.0014 130.519 93.7329 130.393 93.5075C130.333 93.3966 130.253 93.2994 130.157 93.2217C130.061 93.144 129.95 93.0874 129.833 93.0551C129.674 93.0286 129.513 93.0128 129.354 92.9916L129.603 93.0271C129.511 93.0141 129.421 92.9888 129.335 92.9518L129.559 93.0502C129.488 93.0152 129.422 92.9727 129.36 92.9232L129.55 93.0773C129.49 93.0277 129.434 92.9723 129.385 92.9119L129.531 93.1112C129.517 93.092 129.506 93.071 129.497 93.0487L129.591 93.2835C129.579 93.2501 129.571 93.2154 129.566 93.1802L129.6 93.442C129.598 93.4048 129.599 93.3674 129.603 93.3303L129.57 93.5917C129.583 93.5124 129.604 93.4348 129.633 93.3603L129.54 93.5951C129.827 92.9435 130.158 92.3143 130.53 91.7124C130.656 91.4869 130.691 91.2184 130.628 90.9657C130.565 90.7131 130.409 90.4972 130.194 90.3654C129.979 90.2336 129.724 90.1968 129.483 90.263C129.243 90.3293 129.037 90.4931 128.912 90.7186H128.914Z" fill="#211715"/>
<path d="M147.01 105.302C148.554 103.948 149.946 102.412 151.158 100.724C151.982 99.6271 152.707 98.4523 153.326 97.215C153.445 96.9881 153.477 96.7216 153.415 96.4707C153.352 96.2199 153.2 96.004 152.99 95.8678C152.774 95.7386 152.52 95.7033 152.28 95.7694C152.04 95.8355 151.834 95.9977 151.707 96.2212C150.219 99.1884 148.169 101.805 145.684 103.911C145.51 104.097 145.412 104.347 145.412 104.607C145.412 104.868 145.51 105.118 145.684 105.304C145.862 105.483 146.1 105.583 146.347 105.583C146.594 105.583 146.831 105.483 147.01 105.304V105.302Z" fill="#211715"/>
<path d="M152.195 57.0111C148.866 54.4907 144.947 52.9675 140.857 52.6043C137.064 52.3091 133.254 52.8455 129.669 54.1794C126.347 55.3999 123.344 57.4208 120.9 60.0801C118.207 63.1638 116.363 66.9576 115.563 71.0565C114.692 75.6861 114.726 80.4533 115.664 85.0685C115.903 86.3094 117.71 85.7842 117.472 84.5452C116.055 77.1669 116.649 68.3419 121.461 62.3689C125.886 56.8743 132.72 54.395 139.452 54.5087C143.7 54.6187 147.815 56.0857 151.249 58.7142C152.238 59.4441 153.176 57.7376 152.195 57.014V57.0111Z" fill="#211715"/>
<path d="M141.862 105.947C137.091 108.172 131.486 109.191 126.622 106.673C124.331 105.554 122.373 103.801 120.956 101.604C119.656 99.3186 118.819 96.7764 118.497 94.1361C117.954 90.5021 117.844 86.7893 117.432 83.1356C117.425 82.8769 117.324 82.6309 117.149 82.448C116.975 82.265 116.741 82.1588 116.495 82.1511C116.247 82.1528 116.009 82.2571 115.834 82.4413C115.658 82.6256 115.559 82.875 115.557 83.1356C115.955 86.6643 116.12 90.2235 116.565 93.7448C116.86 96.6908 117.712 99.5452 119.071 102.141C121.903 107.2 127.546 110.158 133.052 110.121C136.466 110.099 139.707 109.088 142.808 107.645C143.021 107.512 143.176 107.296 143.239 107.044C143.302 106.792 143.267 106.524 143.144 106.298C143.014 106.077 142.809 105.917 142.57 105.852C142.331 105.786 142.077 105.819 141.862 105.945V105.947Z" fill="#211715"/>
<path d="M155.153 85.7739C156.212 85.0533 157.78 85.3875 158.305 86.4935C158.521 87.1095 158.612 87.7664 158.57 88.4215C158.538 89.2622 158.381 90.0925 158.106 90.8826C157.634 92.2671 156.799 93.4831 155.697 94.3901C154.737 95.1368 153.083 95.6891 151.875 95.0871C151.659 94.9623 151.406 94.9294 151.167 94.995C150.929 95.0607 150.723 95.22 150.593 95.44C150.47 95.6661 150.436 95.934 150.499 96.1859C150.562 96.4379 150.716 96.6539 150.93 96.7872C151.659 97.1125 152.444 97.2763 153.237 97.2684C154.029 97.2605 154.812 97.0811 155.535 96.7415C156.991 96.0331 158.199 94.8623 158.988 93.3944C159.798 92.0162 160.288 90.4575 160.42 88.8438C160.536 87.4164 160.351 85.8526 159.422 84.7397C158.167 83.238 155.766 83.0096 154.207 84.0713C153.198 84.7574 154.136 86.4625 155.153 85.7714V85.7739Z" fill="#211715"/>
<path d="M33.1577 19.8624C32.9583 20.178 32.7192 20.4638 32.4468 20.712C31.9439 21.155 31.2461 21.468 30.6945 21.8805C30.2999 22.1605 29.9668 22.5259 29.7176 22.9521C29.4684 23.3783 29.3088 23.8556 29.2496 24.3519C29.1559 25.0277 29.0847 25.8601 29.0265 26.8504C28.804 26.6215 28.534 26.4499 28.2377 26.349C27.9414 26.2481 27.6268 26.2208 27.3188 26.2691C27.2 26.2874 27.0832 26.3179 26.9701 26.3602C26.4268 24.4572 26.1767 22.4753 26.2292 20.4895C26.3768 16.0164 28.1872 11.7821 31.2722 8.69425C34.3572 5.60645 38.4712 3.91092 42.7323 3.97116C46.4609 3.92278 50.0938 5.21088 53.0315 7.62292C56.0234 10.0377 58.9768 14.1163 59.2365 20.4895C59.302 22.2942 59.1014 24.0986 58.6417 25.8389L58.5147 26.3735C58.3886 26.3248 58.2581 26.2898 58.1253 26.2691C57.8141 26.2199 57.4962 26.2485 57.1975 26.3526C56.8988 26.4566 56.6277 26.6333 56.4062 26.8681C56.1138 25.4707 55.9376 24.3874 55.7286 23.6136C55.416 22.4652 55.2402 21.6447 54.8274 20.4142C54.4623 19.3254 54.4173 18.5693 52.0937 18.3139C51.4638 18.245 50.4778 18.2371 49.8404 18.2366C48.5244 18.2366 47.2084 18.2366 45.8934 18.2647C45.0113 18.319 44.1264 18.286 43.2502 18.1662C41.8569 17.9201 40.7462 17.2153 39.4888 16.7339C38.2314 16.2525 36.517 16.031 35.4532 16.6984C35.0655 16.9672 34.7427 17.327 34.5103 17.7493L33.3386 19.5813C33.2805 19.6739 33.2201 19.7674 33.1577 19.8624Z" fill="#85807F"/>
<path d="M69.3139 95.2879C68.7538 95.8559 68.1793 96.4067 67.5845 96.9344C67.3998 97.0576 67.254 97.2356 67.1656 97.4459C67.0773 97.6562 67.0503 97.8893 67.0882 98.1157C67.1328 98.4307 67.1881 98.7443 67.2368 99.0588C67.4243 100.263 67.6047 101.469 67.7781 102.676C68.1615 105.351 68.5162 108.03 68.8851 110.707L70.262 109.596C68.0987 108.456 65.9396 107.309 63.7945 106.131C62.8475 105.611 61.9037 105.084 60.9629 104.552C60.5105 104.296 60.0591 104.039 59.6085 103.78C59.1366 103.509 58.5456 103.02 58.0109 102.943C57.4363 102.862 56.6626 103.322 56.1142 103.504C55.4581 103.721 54.7961 103.919 54.1281 104.098C52.9602 104.413 51.7804 104.673 50.5888 104.878C48.049 105.303 45.4793 105.501 42.9076 105.468C33.3939 105.394 23.6112 102.872 15.8798 96.8615C9.66667 91.9419 5.22953 84.9509 3.29601 77.035C2.23327 72.6941 1.76397 68.2165 1.90223 63.7368C1.97011 59.0364 2.6965 54.3722 4.05804 49.8941C6.71893 41.3728 11.9688 34.004 19.002 28.9188C19.8568 28.3091 20.7335 27.7358 21.6321 27.199C22.6791 26.5704 21.7357 24.8688 20.6859 25.4988C13.7637 29.6722 8.16706 35.8968 4.59605 43.3939C0.870724 51.233 -0.458379 60.1465 0.136343 68.8494C0.674826 76.7318 2.99935 84.5275 7.55467 90.887C12.3073 97.5231 19.04 102.161 26.5178 104.733C31.0509 106.252 35.7549 107.135 40.5081 107.362C45.2532 107.659 50.0139 107.199 54.6277 105.998C55.8149 105.678 56.9844 105.299 58.136 104.861L57.4138 104.762C61.3364 107.031 65.3125 109.189 69.3153 111.297C69.4769 111.389 69.6603 111.429 69.8433 111.414C70.0264 111.398 70.2012 111.328 70.3468 111.21C70.4924 111.092 70.6025 110.933 70.6638 110.751C70.725 110.569 70.7349 110.373 70.6922 110.185C70.1139 105.985 69.5613 101.78 68.8954 97.5935L68.6545 98.5513C69.3378 97.9534 69.9992 97.3299 70.6388 96.6809C71.5081 95.7988 70.1818 94.4078 69.3134 95.2884L69.3139 95.2879Z" fill="#211715"/>
<path d="M63.4346 28.5638C69.6408 32.7467 74.572 38.7144 77.6414 45.7565C77.7682 45.9804 77.9737 46.1429 78.2137 46.209C78.4536 46.275 78.7086 46.2392 78.9236 46.1094C79.134 45.9737 79.2865 45.7579 79.3492 45.507C79.4118 45.2561 79.38 44.9895 79.2601 44.7627C76.0319 37.425 70.8679 31.2134 64.3804 26.8647C63.361 26.1805 62.4195 27.8841 63.4346 28.5648V28.5638Z" fill="#211715"/>
<path d="M76.4674 67.292C76.7514 66.1983 77.0392 65.1041 77.2763 63.9976C77.3763 63.5354 77.4459 63.0665 77.4849 62.5943C77.5594 61.667 77.2393 60.6815 77.1789 59.7468C77.1019 58.8192 77.1549 57.8847 77.3363 56.9732C77.5649 56.0695 77.876 55.1911 78.2652 54.3502C78.5759 53.6187 78.9091 52.8981 79.254 52.1844C79.5447 51.4675 79.8895 50.7762 80.2851 50.1171C80.4051 49.9463 80.5457 49.7282 80.7341 49.8375C81.0049 49.9945 80.8929 50.5438 80.8817 50.783C80.8326 51.8703 80.6528 52.9466 80.3465 53.9864C80.1121 54.7774 80.8372 55.2982 81.4994 55.1973C83.7091 54.8606 85.8738 53.7388 87.8773 52.7583C88.8727 52.271 89.8569 51.7586 90.8298 51.2211C91.3186 50.9489 91.9302 50.4769 92.517 50.5719C92.6982 50.5872 92.8737 50.6465 93.0294 50.7452C93.1852 50.8438 93.317 50.9791 93.4144 51.1404C93.5431 51.3621 93.7486 51.5227 93.9877 51.5886C94.2268 51.6545 94.4809 51.6205 94.6967 51.4938C95.2712 51.2152 96.4743 51.0936 96.358 52.0899C96.3182 52.4344 96.1139 52.6948 96.1528 53.0625C96.1804 53.3219 96.3332 53.535 96.3763 53.7885C96.4095 53.9937 96.3922 54.2045 96.3261 54.4007C96.26 54.5969 96.1472 54.7722 95.9986 54.9098C95.8557 55.066 95.7644 55.2662 95.738 55.481C95.7116 55.6958 95.7515 55.9138 95.8519 56.1029C95.9925 56.3983 95.3832 56.8216 95.2108 56.983C94.8223 57.3418 94.4141 57.6721 93.9923 57.9896C92.83 58.8692 91.611 59.6666 90.3729 60.4207C89.1211 61.1831 87.8421 61.9013 86.5351 62.551C85.9998 62.8173 85.4571 63.0683 84.9088 63.2982C84.5269 63.4259 84.18 63.6488 83.8979 63.9478C83.6158 64.2469 83.4068 64.6132 83.2887 65.0155C82.8163 66.3937 82.5346 67.8468 82.1386 69.2486C81.7951 70.4663 83.6041 70.9861 83.9462 69.7723C84.3211 68.4487 84.6094 67.0991 85.0161 65.7853C85.0499 65.5682 85.1569 65.3709 85.3175 65.2296C85.6319 65.0609 85.9592 64.9201 86.296 64.8088C86.9081 64.5341 87.5117 64.2383 88.1088 63.9292C90.8189 62.5686 93.3909 60.9233 95.7853 59.0183C96.2499 58.6561 96.6856 58.2548 97.0882 57.8183C97.4248 57.4718 97.6443 57.0192 97.7133 56.5295C97.7824 56.0398 97.6971 55.5398 97.4706 55.1057L97.3244 56.2988C98.3198 55.2868 98.4173 53.9697 97.9772 52.6668V53.19C98.3554 51.9594 98.2978 50.5783 97.1519 49.8124C96.0398 49.0691 94.8888 49.238 93.7505 49.7902L95.0332 50.1437C94.513 48.9333 92.8642 48.4002 91.7081 48.6754C90.9864 48.9045 90.2958 49.2305 89.6535 49.645C89.1023 49.9473 88.547 50.2411 87.9874 50.5266C85.8054 51.6425 83.4298 52.9257 81.0012 53.2958L82.1541 54.5067C82.4751 53.3938 82.6716 52.2454 82.7394 51.0848C82.8046 50.0629 82.754 49.1272 81.9971 48.384C81.6262 48.0292 81.1428 47.8321 80.6411 47.8311C80.1394 47.8301 79.6553 48.0252 79.2831 48.3786C78.6331 48.9584 78.3069 49.8109 77.924 50.5876C77.0336 52.4054 76.0128 54.3418 75.5489 56.3372C75.3011 57.4532 75.2173 58.6023 75.3005 59.7449C75.3666 60.7741 75.6613 61.8082 75.5868 62.834C75.5784 62.9546 75.6014 62.7489 75.6018 62.7464C75.592 62.8202 75.5793 62.8941 75.5657 62.9669C75.5348 63.1357 75.5006 63.3046 75.465 63.4724C75.3797 63.8701 75.2855 64.2659 75.1894 64.6611C75.0184 65.3645 74.8379 66.0659 74.6561 66.7668C74.3379 67.9905 76.1459 68.5127 76.4637 67.2901L76.4674 67.292Z" fill="#211715"/>
<path d="M34.8833 44.2927C34.8975 44.8719 34.8836 45.4515 34.8416 46.0292C34.8383 46.0666 34.813 46.2798 34.8388 46.0902C34.8303 46.1503 34.8214 46.2103 34.8111 46.2704C34.7886 46.4018 34.761 46.5327 34.7272 46.6612C34.709 46.7311 34.686 46.799 34.6673 46.8684C34.6171 47.0506 34.6869 46.8364 34.6869 46.8364C34.7019 46.8532 34.5679 47.0506 34.5571 47.0688C34.4831 47.1923 34.5974 47.0343 34.5965 47.0196C34.5965 47.0491 34.5088 47.1283 34.4915 47.1485C34.4207 47.2322 34.3467 47.3124 34.2708 47.3907C34.0964 47.5703 33.9118 47.7397 33.7229 47.9031C33.6657 47.9526 33.6081 48.0019 33.55 48.0507C33.5303 48.067 33.3738 48.1945 33.4858 48.1049C33.3719 48.1964 33.2571 48.2855 33.1413 48.3741C32.8887 48.5676 32.6319 48.7551 32.3732 48.9392C32.1587 49.0712 32.0029 49.2874 31.9401 49.5401C31.8773 49.7928 31.9126 50.0613 32.0383 50.2866C32.1641 50.512 32.3699 50.6756 32.6105 50.7416C32.8511 50.8075 33.1067 50.7704 33.3213 50.6383C34.3383 49.9138 35.4668 49.141 36.1777 48.0626C36.4829 47.5132 36.6596 46.8956 36.6932 46.2606C36.7563 45.6065 36.7784 44.9488 36.7593 44.2917C36.7593 44.0306 36.6606 43.7802 36.4848 43.5956C36.309 43.411 36.0706 43.3073 35.822 43.3073C35.5734 43.3073 35.335 43.411 35.1592 43.5956C34.9835 43.7802 34.8847 44.0306 34.8847 44.2917L34.8833 44.2927Z" fill="#211715"/>
<path d="M48.7765 44.3561C48.7582 44.9992 48.7808 45.6428 48.844 46.2827C48.875 46.9226 49.0592 47.5439 49.3797 48.0891C50.1295 49.1508 51.2867 49.8867 52.3393 50.5743C52.5544 50.7037 52.8093 50.7393 53.0491 50.6733C53.2889 50.6073 53.4945 50.445 53.6215 50.2214C53.7419 49.9948 53.7742 49.728 53.7116 49.477C53.649 49.2259 53.4962 49.0101 53.2855 48.8747C52.7732 48.54 52.2755 48.1856 51.7858 47.8174C51.6452 47.713 51.8148 47.845 51.7389 47.7805C51.6963 47.7445 51.6531 47.7091 51.6105 47.6727C51.5107 47.5875 51.4127 47.5004 51.3171 47.4098C51.2393 47.3365 51.1634 47.2622 51.0903 47.1824C51.0397 47.1278 50.9497 46.9737 50.8864 46.9422C50.9188 46.958 50.9961 47.1189 50.9375 47.0052C50.9188 46.9698 50.8958 46.9309 50.8742 46.8965C50.7936 46.7665 50.93 46.9289 50.8925 46.9501C50.8925 46.9501 50.8457 46.8024 50.841 46.7911C50.8005 46.6536 50.767 46.514 50.7407 46.3727C50.7294 46.3147 50.7205 46.2566 50.7107 46.1985C50.6638 45.9214 50.7144 46.3107 50.7036 46.1493C50.6643 45.5507 50.6479 44.9586 50.6516 44.3581C50.6516 44.097 50.5529 43.8466 50.3771 43.662C50.2013 43.4774 49.9629 43.3737 49.7143 43.3737C49.4657 43.3737 49.2273 43.4774 49.0515 43.662C48.8758 43.8466 48.777 44.097 48.777 44.3581L48.7765 44.3561Z" fill="#211715"/>
<path d="M73.3167 71.4292C71.7532 67.0455 70.9298 62.3492 69.1232 58.0645C68.1962 55.8657 66.4884 54.4619 64.4671 53.4588C62.8198 52.6407 61.1396 51.8916 59.4675 51.136C57.5788 50.283 55.6808 49.4487 53.8146 48.5425C53.5983 48.4181 53.3448 48.3854 53.1063 48.4511C52.8677 48.5169 52.6622 48.676 52.5319 48.8959C52.4084 49.1219 52.3745 49.3897 52.4375 49.6417C52.5005 49.8936 52.6552 50.1095 52.8684 50.2426C56.1091 51.8177 59.4295 53.1959 62.681 54.7504C63.4744 55.1075 64.2466 55.5145 64.9934 55.9691C65.8737 56.539 66.6052 57.3299 67.122 58.2707C67.6652 59.3715 68.0988 60.5283 68.416 61.7226C68.7407 62.741 69.0397 63.7683 69.3275 64.799C70 67.2049 70.6711 69.603 71.5091 71.9524C71.5806 72.2005 71.74 72.4104 71.9546 72.5386C72.1691 72.6669 72.4223 72.7037 72.662 72.6415C72.9009 72.5706 73.1036 72.4039 73.2264 72.1773C73.3491 71.9507 73.3821 71.6825 73.3181 71.4306L73.3167 71.4292Z" fill="#211715"/>
<path d="M31.7869 49.2675C29.1062 50.5773 26.3923 51.8117 23.698 53.0905C20.886 54.4254 17.7531 55.7485 16.2337 58.7682C15.1043 61.0147 14.831 63.7441 14.5142 66.2258C14.0868 69.5729 13.8145 72.9407 13.5769 76.3074C13.2306 81.1976 12.9728 86.0947 12.7272 90.9913C12.664 92.2577 14.5386 92.2538 14.6019 90.9913C14.989 83.2738 15.3297 75.5248 16.1953 67.8462C16.3938 65.5904 16.7709 63.3559 17.3224 61.1658C17.7539 59.5708 18.7157 58.1911 20.0331 57.2773C21.2328 56.4634 22.4995 55.7638 23.8179 55.1869C26.784 53.7668 29.7792 52.4137 32.7345 50.9696C32.9476 50.8363 33.1023 50.6204 33.1651 50.3685C33.228 50.1165 33.194 49.8487 33.0706 49.6228C32.9413 49.4019 32.7358 49.2418 32.497 49.1759C32.2581 49.1101 32.0043 49.1436 31.7883 49.2694L31.7869 49.2675Z" fill="#211715"/>
<path d="M23.8109 97.4266C24.0527 94.4891 24.3395 91.555 24.5504 88.6159C24.6839 86.8664 24.6429 85.107 24.4281 83.3664C23.8789 78.9183 22.9983 74.5356 22.3009 70.1135C21.8196 67.0617 21.4395 63.9844 20.8692 60.9469C20.6348 59.705 18.8286 60.2307 19.0611 61.4706C19.5569 64.1104 19.9014 66.7812 20.3073 69.4372C20.6536 71.7014 21.0688 73.9537 21.4564 76.2116C21.8393 78.4398 22.1997 80.674 22.4954 82.919C22.7328 84.5291 22.8113 86.1605 22.7297 87.7875C22.5301 91.0056 22.1987 94.2149 21.933 97.4281C21.829 98.6901 23.7045 98.6828 23.8076 97.4281L23.8109 97.4266Z" fill="#211715"/>
<path d="M43.1691 51.1468H42.3194C42.1532 50.9954 41.9597 50.8804 41.7505 50.8087C38.8233 49.5717 36.3811 47.6855 35.3112 46.1754C34.6049 46.8553 34.031 47.6728 33.6212 48.5824C34.4081 59.5647 38.8111 68.5309 42.4094 77.1359C43.7323 74.6377 44.9254 72.066 45.9834 69.4322C47.3893 65.9232 49.4542 59.7847 50.0841 57.9832C51.0753 54.8804 51.7943 51.6889 52.2319 48.4485C51.8326 47.591 51.2824 46.8206 50.6104 46.1779C49.5409 47.688 47.0988 49.5742 44.1716 50.8111C43.9622 50.8829 43.7686 50.9979 43.6021 51.1493L43.1691 51.1468Z" fill="#F54749" fill-opacity="0.6"/>
<path d="M64.5289 61.5601C63.8771 66.9184 63.0869 72.2383 62.1857 77.5572C61.7953 79.8598 61.4077 82.1697 61.1546 84.4945C61.0171 86.2634 61.0472 88.0423 61.2446 89.805C61.4916 92.9085 61.7948 96.007 62.0263 99.1119C62.1201 100.367 63.9947 100.377 63.901 99.1119C63.6943 96.3436 63.4323 93.5808 63.2017 90.8151C63.0471 88.9584 62.8034 87.056 62.9608 85.1915C63.3311 80.8171 64.3199 76.5063 64.9868 72.1762C65.53 68.649 65.971 65.106 66.4036 61.5621C66.4023 61.3014 66.3032 61.0517 66.1277 60.8674C65.9522 60.6831 65.7145 60.5789 65.4663 60.5776C65.2196 60.5841 64.9848 60.6899 64.8103 60.8732C64.6359 61.0564 64.5351 61.303 64.5289 61.5621V61.5601Z" fill="#211715"/>
<path d="M51.2824 48.5262C50.7584 52.148 49.8893 55.7054 48.6884 59.1448C47.4971 62.6105 46.3358 66.1028 44.9491 69.4888C43.9485 71.9321 42.8162 74.3081 41.5977 76.6392C41.0171 77.7506 42.6348 78.7454 43.2164 77.633C45.2081 73.7805 46.9387 69.7853 48.3951 65.677C49.5423 62.4889 50.7894 59.2752 51.6714 55.9917C52.285 53.7125 52.7589 51.3943 53.09 49.0514C53.148 48.7997 53.1124 48.5343 52.9905 48.3092C52.8686 48.0841 52.6695 47.9164 52.4339 47.8401C52.1941 47.7726 51.9386 47.807 51.7228 47.936C51.507 48.065 51.3483 48.2781 51.281 48.5292L51.2824 48.5262Z" fill="#211715"/>
<path d="M32.6863 48.6517C33.2955 56.7394 35.9457 64.2762 39.0487 71.6353C39.8735 73.5914 40.7195 75.5376 41.5405 77.4952C41.6672 77.7192 41.8727 77.882 42.1126 77.9481C42.3526 78.0142 42.6077 77.9785 42.8228 77.8486C43.0329 77.7124 43.185 77.4965 43.2476 77.2457C43.3103 76.9949 43.2786 76.7284 43.1593 76.5014C40.278 69.632 37.1525 62.8424 35.5605 55.4808C35.0712 53.2326 34.7371 50.9504 34.5609 48.6517C34.4671 47.3971 32.5925 47.3862 32.6863 48.6517Z" fill="#211715"/>
<path d="M55.251 72.5331C55.089 72.5047 54.9314 72.4535 54.7824 72.381C54.7196 72.3446 54.6601 72.3057 54.5982 72.2678C54.3479 72.1152 54.6638 72.3614 54.4867 72.1807C54.4239 72.1162 54.3625 72.0483 54.2992 71.9838C54.1802 71.8652 54.249 71.9297 54.28 71.971C54.1575 71.8011 54.0546 71.6166 53.9735 71.4212C54.0391 71.5743 53.9786 71.4325 53.9697 71.4015C53.9435 71.3134 53.9135 71.2268 53.8896 71.1377C53.8509 70.9876 53.8196 70.8354 53.7959 70.6819C53.8301 70.8941 53.7879 70.5904 53.786 70.5692C53.7785 70.4753 53.7737 70.3808 53.7715 70.2857C53.7664 70.0966 53.7705 69.9073 53.7837 69.7186C53.7898 69.6251 53.7982 69.5321 53.8085 69.4386C53.8038 69.4809 53.778 69.6182 53.8118 69.4248C53.8394 69.2663 53.8638 69.1073 53.9055 68.9513C53.9196 68.8947 53.935 68.8386 53.9524 68.7834C53.9646 68.7445 53.9791 68.7066 53.9913 68.6678C54.0358 68.528 54.0747 68.6495 53.9622 68.7347C54.0602 68.6604 54.1548 68.337 54.2261 68.2213C54.2729 68.1435 54.4646 67.9353 54.2786 68.1303C54.3723 68.0318 54.4482 67.9225 54.5424 67.8275C54.5799 67.7896 54.6212 67.7557 54.6577 67.7173C54.8072 67.5608 54.4857 67.8241 54.669 67.7065C54.7627 67.6459 54.8517 67.58 54.9502 67.5253C54.9942 67.5007 55.2014 67.416 54.9759 67.5041C55.0317 67.4825 55.087 67.4603 55.1432 67.4416C55.1995 67.4229 55.2604 67.4052 55.3199 67.3924C55.371 67.3796 55.6831 67.3481 55.4511 67.3619C55.5907 67.3512 55.7307 67.348 55.8706 67.3521C55.8842 67.3521 56.1757 67.3796 55.9849 67.3521C56.0655 67.3629 56.1462 67.3806 56.2258 67.3983C56.3985 67.4337 56.568 67.4846 56.7324 67.5504C56.575 67.4845 56.7456 67.5603 56.7826 67.5839C56.8665 67.6366 56.9504 67.6868 57.0319 67.7444C56.8665 67.6272 57.0741 67.7852 57.0961 67.8069C57.1355 67.8453 57.1739 67.8856 57.2109 67.9265C57.2306 67.9481 57.3937 68.1642 57.2705 67.988C57.3173 68.0564 57.3642 68.1273 57.405 68.2001C57.4373 68.2568 57.6027 68.6136 57.5282 68.4246C57.5909 68.586 57.6418 68.7522 57.6805 68.9217C57.7007 69.0074 57.7147 69.094 57.7326 69.1802C57.7911 69.4563 57.7274 68.9862 57.7452 69.2697C57.7541 69.4174 57.7649 69.5651 57.7649 69.7127C57.7649 69.8604 57.7532 70.0081 57.7447 70.1557C57.7283 70.4402 57.7879 69.9662 57.734 70.2438C57.711 70.361 57.6908 70.4786 57.6627 70.5953C57.6197 70.7699 57.5673 70.9418 57.5057 71.1101C57.5681 70.9388 57.5015 71.12 57.4814 71.1623C57.4345 71.2549 57.3928 71.3479 57.3408 71.4375C57.2986 71.5143 57.2541 71.5891 57.2072 71.6619C57.195 71.6811 57.03 71.8962 57.1538 71.7431C57.0379 71.8863 56.9126 72.0206 56.7788 72.1453C56.6636 72.2531 56.9574 72.0301 56.7409 72.1768C56.6471 72.2393 56.5572 72.3028 56.4597 72.3574C56.4653 72.3545 56.2211 72.4736 56.3453 72.4194C56.4348 72.3801 56.1691 72.478 56.1382 72.4874C56.0543 72.5115 55.9699 72.5307 55.8846 72.5479C56.0745 72.5095 55.7998 72.5533 55.7773 72.5548C55.6836 72.5597 55.5899 72.5597 55.4961 72.5548C55.4315 72.5518 55.3668 72.5469 55.3026 72.54C55.3874 72.5538 55.3705 72.5504 55.2529 72.5292C55.0132 72.4675 54.7601 72.5045 54.5456 72.6327C54.3311 72.7608 54.1715 72.9704 54.0995 73.2183C54.0356 73.4703 54.0686 73.7385 54.1914 73.9651C54.3141 74.1917 54.5168 74.3586 54.7557 74.4297C55.709 74.6447 56.7045 74.4817 57.5502 73.9719C58.2791 73.4907 58.85 72.7864 59.1858 71.9538C59.8888 70.2497 59.8101 68.1239 58.6427 66.6615C58.0378 65.9856 57.2324 65.5452 56.3583 65.4124C55.4841 65.2797 54.593 65.4623 53.8305 65.9305C53.3336 66.2734 52.9124 66.7242 52.5952 67.2523C52.278 67.7805 52.0721 68.3739 51.9915 68.9926C51.8056 70.0306 51.8865 71.1019 52.2259 72.0961C52.4296 72.6756 52.7677 73.1926 53.2096 73.6003C53.6515 74.008 54.1832 74.2936 54.7566 74.4311C54.9963 74.4942 55.2499 74.4578 55.4646 74.3294C55.6794 74.2011 55.8387 73.9907 55.9095 73.742C55.9722 73.4901 55.9384 73.2224 55.8153 72.9964C55.6922 72.7703 55.4896 72.604 55.251 72.5331Z" fill="#211715"/>
<path d="M57.5202 66.0596C57.9575 62.7659 58.0518 59.4319 57.8014 56.1168C57.5451 53.3648 56.9785 50.2318 54.9825 48.2413C54.1075 47.3696 52.7798 48.7596 53.6571 49.6338C55.3911 51.3634 55.7937 54.2606 55.9713 56.6444C56.1605 59.785 56.052 62.9376 55.6475 66.0556C55.649 66.3162 55.7482 66.5657 55.9236 66.75C56.0991 66.9343 56.3367 67.0385 56.5848 67.0401C56.8315 67.0339 57.0666 66.9282 57.2411 66.7449C57.4156 66.5616 57.5163 66.3148 57.5221 66.0556L57.5202 66.0596Z" fill="#211715"/>
<path d="M30.4035 63.0496C30.2858 60.4152 30.0581 57.7489 30.2811 55.1141C30.4522 53.0935 31.038 51.1689 32.4683 49.7489C33.3461 48.8757 32.0189 47.4847 31.143 48.3564C27.4167 52.0613 28.3133 58.217 28.5288 63.0516C28.5851 64.3131 30.4602 64.3205 30.4035 63.0516V63.0496Z" fill="#211715"/>
<path d="M92.3445 55.2898C91.59 55.6752 90.8579 56.1069 90.1123 56.5101C89.7519 56.7045 89.3873 56.89 89.0161 57.0608C89.2036 56.9747 88.9829 57.0746 88.9416 57.0919C88.8418 57.1342 88.741 57.175 88.6398 57.2134C88.4355 57.2922 88.2288 57.3611 88.0202 57.4261C87.7805 57.4955 87.5768 57.662 87.4539 57.8892C87.3311 58.1163 87.2992 58.3853 87.3653 58.6372C87.4314 58.889 87.59 59.1029 87.8062 59.2319C88.0225 59.3609 88.2787 59.3944 88.5184 59.325C90.2159 58.8043 91.7123 57.7962 93.2907 56.99C93.5044 56.8573 93.6595 56.6414 93.7224 56.3892C93.7853 56.137 93.751 55.8689 93.6267 55.6433C93.4971 55.4227 93.2916 55.263 93.0529 55.1973C92.8142 55.1315 92.5606 55.1646 92.3445 55.2898Z" fill="#211715"/>
<path d="M92.2751 52.6126C91.1354 53.1167 90.0298 53.7068 88.9008 54.233C88.3773 54.4791 87.8557 54.7252 87.3332 54.9713C87.0796 55.09 86.8256 55.2086 86.5711 55.3252C86.4526 55.3799 86.3331 55.4335 86.214 55.4877C86.1072 55.5369 86.1808 55.5014 86.245 55.4744C86.1864 55.499 86.1287 55.5236 86.0706 55.5497C85.8349 55.6256 85.6356 55.7932 85.5137 56.0183C85.3917 56.2434 85.3562 56.5089 85.4145 56.7605C85.4815 57.0117 85.6402 57.225 85.8561 57.354C86.0719 57.483 86.3275 57.5174 86.5674 57.4496C87.6205 56.9978 88.6524 56.4942 89.6914 56.0084C90.2004 55.7707 90.7122 55.5423 91.2155 55.2923C91.5122 55.1446 91.8079 54.9935 92.1059 54.8448C92.2503 54.7725 92.3946 54.7001 92.5404 54.6292L92.7021 54.5515C92.7232 54.5416 92.9833 54.4235 92.7761 54.515C93.0115 54.4384 93.2103 54.2706 93.3322 54.0456C93.4541 53.8206 93.4898 53.5554 93.4322 53.3037C93.365 53.0525 93.2062 52.8394 92.9903 52.7104C92.7744 52.5814 92.5188 52.5469 92.2789 52.6146L92.2751 52.6126Z" fill="#211715"/>
<path d="M84.8962 56.6788C85.9985 57.6416 87.0542 58.6589 88.0634 59.7306C88.1498 59.8246 88.2533 59.8996 88.3676 59.9512C88.482 60.0028 88.605 60.0299 88.7294 60.0311C88.8539 60.0322 88.9773 60.0073 89.0925 59.9578C89.2077 59.9083 89.3123 59.8352 89.4003 59.7428C89.4883 59.6504 89.5579 59.5404 89.6051 59.4195C89.6522 59.2985 89.6759 59.1688 89.6748 59.0381C89.6737 58.9074 89.6479 58.7782 89.5988 58.6581C89.5496 58.538 89.4782 58.4294 89.3887 58.3386C88.3805 57.2675 87.3248 56.2503 86.2216 55.2868C86.0419 55.1086 85.806 55.0061 85.5589 54.9989C85.3735 54.9989 85.1923 55.0567 85.0382 55.1649C84.8841 55.273 84.764 55.4268 84.6931 55.6066C84.6222 55.7865 84.6036 55.9844 84.6398 56.1753C84.6759 56.3663 84.7652 56.5417 84.8962 56.6793V56.6788Z" fill="#211715"/>
<path d="M71.1637 79.1534C72.5199 74.8623 73.7277 70.5249 74.9312 66.1845L73.7783 66.8736C77.2032 68.0722 80.6361 69.3229 84.1262 70.298L83.47 69.0871C82.9156 71.9759 82.3921 74.8712 81.7581 77.7423C81.2224 80.4724 80.4804 83.1533 79.539 85.7595C78.762 87.7584 77.6034 89.713 75.7569 90.7801C74.6817 91.3838 73.4824 91.703 72.2632 91.71C71.044 91.7171 69.8415 91.4117 68.7599 90.8205C66.5545 89.5993 64.8481 87.4596 63.1323 85.6094C62.2888 84.7002 60.9644 86.0932 61.807 87.0019C63.5101 88.8383 65.1907 90.8333 67.2804 92.1992C68.473 92.9713 69.8146 93.4541 71.2075 93.6123C72.6004 93.7704 74.0093 93.5999 75.3314 93.1132C80.443 91.2221 81.9343 85.1393 83.1218 80.1994C83.9631 76.6988 84.599 73.1499 85.2776 69.6123C85.3386 69.3605 85.3043 69.0936 85.1819 68.8678C85.0596 68.642 84.8588 68.4746 84.6215 68.401C81.1315 67.4259 77.6986 66.1747 74.2737 64.9766C74.0339 64.9108 73.7791 64.9461 73.5637 65.0748C73.3483 65.2035 73.1894 65.4156 73.1208 65.6657C71.9168 70.0056 70.7095 74.3435 69.3533 78.6342C68.9722 79.8396 70.7817 80.3569 71.1609 79.1579L71.1637 79.1534Z" fill="#211715"/>
<path d="M29.6039 78.0027C29.5299 77.98 29.4633 77.7566 29.4736 77.918C29.4619 77.7516 29.8832 77.5272 29.8622 77.6758C29.8622 77.6808 29.6747 77.3761 29.6827 77.3899C29.536 76.9707 29.4368 76.5349 29.3869 76.0914C29.1948 75.107 29.012 74.1225 28.8508 73.1322C28.4788 71.1278 28.3271 69.0852 28.3986 67.0444C28.4454 66.1978 28.5462 65.0869 29.2257 64.5203C29.4996 64.295 29.8334 64.1648 30.1809 64.1478C30.5284 64.1307 30.8724 64.2278 31.165 64.4253C31.9388 64.8683 32.2781 65.6559 32.5888 66.4926C32.9644 67.5329 33.2759 68.5975 33.5214 69.6798C33.8026 70.865 34.0229 72.0646 34.2103 73.27C34.3106 73.9168 34.4015 74.5655 34.4868 75.2152C34.5229 75.4879 34.5684 75.7626 34.5843 76.0382C34.5733 76.164 34.5733 76.2905 34.5843 76.4162L34.5913 76.4546C35.0806 76.3027 35.2261 76.43 35.0277 76.8366C36.0892 76.2336 35.1439 74.533 34.0814 75.1365C32.4623 76.0559 33.5486 78.8842 35.3131 78.2527C37.094 77.6158 36.3361 74.9391 36.1342 73.5373C35.8938 71.7743 35.5536 70.0279 35.1153 68.3075C34.708 66.7594 34.2497 64.9338 33.2496 63.6806C32.7928 63.1128 32.2007 62.6823 31.5339 62.4332C30.867 62.1841 30.1491 62.1252 29.4535 62.2625C27.9538 62.6381 27.0465 63.9287 26.725 65.4487C26.0529 68.6225 26.7494 72.1428 27.3253 75.2768C27.5798 76.6624 27.7003 79.1653 29.3569 79.5379C31.4701 80.0139 32.0976 76.7204 30.1026 76.1052C28.9427 75.7473 28.4473 77.6468 29.6044 78.0036L29.6039 78.0027Z" fill="#211715"/>
<path d="M41.4698 81.5108C41.5363 85.32 41.4416 89.1308 41.5077 92.9401C41.5298 94.2056 43.4048 94.21 43.3823 92.9401C43.3163 89.1308 43.4109 85.32 43.3444 81.5108C43.3224 80.2453 41.4477 80.2413 41.4698 81.5108Z" fill="#211715"/>
<path d="M48.6931 56.9826C50.1072 55.241 51.3412 53.3467 52.3744 51.3314C52.6262 50.831 52.8665 50.3245 53.0952 49.8119C53.2876 49.5074 53.3884 49.1491 53.3844 48.7837C53.313 48.4819 53.1939 48.1949 53.0319 47.9346C52.5783 47.0196 51.9833 46.19 51.2712 45.4794C51.1683 45.3763 51.0447 45.2987 50.9095 45.2522C50.7744 45.2056 50.631 45.1914 50.4899 45.2105C50.3489 45.2296 50.2136 45.2816 50.0941 45.3626C49.9746 45.4436 49.8738 45.5516 49.7992 45.6788C49.0626 46.5903 48.1976 47.3781 47.2342 48.0148C46.6006 48.4532 45.9434 48.8527 45.2659 49.2114C44.5709 49.5058 43.8909 49.8378 43.2286 50.2062C41.8067 51.1734 43.3355 52.4871 44.0436 53.2614C45.1614 54.4841 46.3264 55.689 47.3711 56.9826C47.5478 57.1652 47.7858 57.2676 48.0337 57.2676C48.2817 57.2676 48.5197 57.1652 48.6964 56.9826C48.8676 56.7954 48.9632 56.5459 48.9632 56.2863C48.9632 56.0268 48.8676 55.7773 48.6964 55.5901C47.8528 54.5436 46.9019 53.6 46.0143 52.5959C45.6394 52.1716 45.2645 51.7493 44.875 51.3412C44.7649 51.2266 44.6561 51.1109 44.547 50.9967C44.5095 50.9578 44.4767 50.9145 44.4401 50.8746C44.6313 51.0848 44.487 50.9401 44.4031 50.7816L44.531 51.2782L44.5423 51.1468L44.2681 51.8428C44.2025 51.9147 44.5057 51.7252 44.5854 51.6883C44.8197 51.5805 45.054 51.482 45.2884 51.3737C45.653 51.2041 46.0123 51.0236 46.3663 50.8323C47.0816 50.4461 47.7733 50.0135 48.4372 49.5368C49.5718 48.7572 50.5793 47.7906 51.4207 46.674L49.9487 46.8734C50.6556 47.608 51.2338 48.4675 51.6569 49.4127V48.4175C50.5386 50.9981 49.0971 53.4103 47.3706 55.5901C47.2008 55.778 47.1061 56.0272 47.1061 56.2863C47.1061 56.5454 47.2013 56.7946 47.3711 56.9826C47.5477 57.1643 47.7846 57.2661 48.0319 57.2661C48.2791 57.2661 48.5165 57.1643 48.6931 56.9826Z" fill="#211715"/>
<path d="M38.5505 55.5901C36.8239 53.4103 35.3822 50.9981 34.2637 48.4175V49.4113C34.687 48.4662 35.2652 47.6066 35.972 46.8719L34.4999 46.6726C35.3415 47.7891 36.3491 48.7558 37.4839 49.5353C38.1478 50.0119 38.8393 50.4445 39.5544 50.8308C39.909 51.0228 40.2683 51.2033 40.6323 51.3723C40.8666 51.4805 41.1009 51.579 41.3353 51.6868C41.4149 51.7237 41.7181 51.9132 41.653 51.8413L41.3821 51.1468L41.3938 51.2782L41.5218 50.7816C41.4599 50.8983 41.2406 51.1227 41.4843 50.8746C41.4468 50.9125 41.4154 50.9583 41.3779 50.9967C41.279 51.0951 41.1834 51.2005 41.0859 51.3024C40.6824 51.7227 40.2953 52.1578 39.9087 52.5959C39.0215 53.6 38.0706 54.5441 37.2266 55.5901C37.0568 55.778 36.9621 56.0272 36.9621 56.2863C36.9621 56.5454 37.0568 56.7946 37.2266 56.9826C37.4034 57.1652 37.6415 57.2676 37.8895 57.2676C38.1375 57.2676 38.3756 57.1652 38.5524 56.9826C39.5956 55.689 40.7602 54.4846 41.8798 53.2614C42.588 52.4871 44.1205 51.1759 42.6948 50.2062C42.0319 49.8373 41.3509 49.5053 40.6548 49.2114C39.977 48.8531 39.3198 48.4536 38.6864 48.0148C37.7229 47.3781 36.8577 46.5903 36.121 45.6788C36.0463 45.5516 35.9456 45.4436 35.8261 45.3626C35.7066 45.2816 35.5713 45.2296 35.4302 45.2105C35.2892 45.1914 35.1458 45.2056 35.0107 45.2522C34.8755 45.2987 34.7519 45.3763 34.649 45.4794C33.953 46.1717 33.3697 46.979 32.922 47.8691C32.7723 48.1155 32.6486 48.3782 32.5532 48.6528C32.5011 49.0308 32.5846 49.4157 32.7875 49.7327C33.0281 50.2715 33.28 50.8044 33.5434 51.3314C34.5767 53.3466 35.8107 55.2409 37.2247 56.9826C37.4015 57.1652 37.6396 57.2676 37.8876 57.2676C38.1356 57.2676 38.3737 57.1652 38.5505 56.9826C38.7215 56.7952 38.8169 56.5458 38.8169 56.2863C38.8169 56.0268 38.7215 55.7774 38.5505 55.5901Z" fill="#211715"/>
<path d="M48.3651 79.2367L52.3444 74.8835C52.5202 74.6989 52.619 74.4484 52.619 74.1873C52.619 73.9261 52.5202 73.6757 52.3444 73.491C52.1686 73.3064 51.9301 73.2026 51.6815 73.2026C51.4329 73.2026 51.1944 73.3064 51.0186 73.491L47.0393 77.8447C46.8635 78.0293 46.7648 78.2798 46.7648 78.5409C46.7649 78.802 46.8637 79.0523 47.0395 79.2369C47.2153 79.4215 47.4537 79.5252 47.7023 79.5251C47.9509 79.5251 48.1893 79.4213 48.3651 79.2367Z" fill="#211715"/>
<path d="M55.2032 33.6903C55.0749 34.4526 54.8536 35.1944 54.5447 35.8974C54.4665 36.0943 54.3924 36.2911 54.3207 36.492C54.2706 36.6303 54.4145 36.2882 54.2968 36.5436C54.2664 36.6101 54.2373 36.677 54.2064 36.7435C53.7707 37.6606 53.2639 38.5386 52.6912 39.3685C51.3916 41.2881 49.6178 43.3756 47.3486 43.9358C46.1769 44.2252 46.6718 46.1242 47.8472 45.8343C50.5331 45.1717 52.6017 42.8288 54.1661 40.5754C54.7901 39.6927 55.3403 38.755 55.8106 37.7727C56.3824 36.6581 56.788 35.4579 57.0131 34.214C57.0708 33.9624 57.0351 33.6971 56.9132 33.4722C56.7913 33.2473 56.5925 33.0795 56.357 33.0031C56.1172 32.9355 55.8616 32.9699 55.6458 33.0989C55.43 33.2279 55.2713 33.4411 55.2041 33.6922L55.2032 33.6903Z" fill="#211715"/>
<path d="M28.3606 33.521C28.9028 36.4642 30.137 39.2183 31.9509 41.5329C33.7956 43.8876 36.3094 45.9087 39.2446 46.3802C39.4842 46.4412 39.7369 46.4038 39.9511 46.2758C40.1654 46.1477 40.325 45.9386 40.3975 45.6911C40.4616 45.4392 40.4288 45.1708 40.306 44.9441C40.1832 44.7174 39.9804 44.5506 39.7414 44.4798C37.0865 44.0535 34.9428 42.2677 33.274 40.1394C31.6889 38.0666 30.6209 35.6116 30.1663 32.9963C29.9395 31.7535 28.1323 32.2797 28.3582 33.5196L28.3606 33.521Z" fill="#211715"/>
<path d="M52.3191 5.90024C49.8416 4.26426 47.0233 3.28344 44.1059 3.04178C41.1884 2.80012 38.2586 3.30483 35.5675 4.51267C33.3942 5.52439 31.4417 6.9941 29.8313 8.83073C28.2208 10.6674 26.9867 12.8318 26.2052 15.1899C25.1006 18.7199 25.0044 22.5125 25.9287 26.0994C26.2287 27.3255 28.0377 26.8057 27.7363 25.5756C26.4607 20.3611 27.412 14.7193 30.8266 10.6122C33.3462 7.61849 36.8019 5.66957 40.5698 5.11742C44.3377 4.56527 48.1693 5.44627 51.3729 7.60134C52.3922 8.28601 53.3337 6.58245 52.3191 5.90122V5.90024Z" fill="#211715"/>
<path d="M59.5457 26.1008C60.4231 22.6053 60.3608 18.9229 59.3658 15.4625C58.54 12.7191 57.082 10.2323 55.1212 8.22292C54.2579 7.33693 52.9312 8.72745 53.7958 9.61541C55.5313 11.3804 56.8238 13.569 57.5582 15.9862C58.465 19.103 58.5273 22.4236 57.7381 25.5756C57.4495 26.8061 59.2566 27.3308 59.5457 26.0993V26.1008Z" fill="#211715"/>
<path d="M57.1608 27.4653C57.2758 27.3701 57.4085 27.3011 57.5503 27.2628C57.6921 27.2244 57.8399 27.2174 57.9844 27.2423C58.1289 27.2672 58.2669 27.3235 58.3896 27.4074C58.5123 27.4914 58.617 27.6013 58.697 27.7301C58.8432 28.1078 58.906 28.5154 58.8807 28.9223C58.8943 29.4033 58.8616 29.8844 58.7833 30.3586C58.6267 31.3103 58.2983 32.2218 57.816 33.0441C57.613 33.399 57.3553 33.716 57.0535 33.9823C56.9617 34.0886 56.8425 34.1646 56.7104 34.2011C56.5783 34.2377 56.4389 34.2331 56.3092 34.188C55.1423 33.8612 54.6446 35.7601 55.8111 36.087C57.3014 36.5044 58.4688 35.4963 59.2814 34.2805C60.0626 33.0474 60.5468 31.6334 60.6926 30.1602C60.8519 28.7894 60.8481 27.0523 59.7918 26.0556C59.243 25.553 58.5386 25.2776 57.8105 25.2808C57.0824 25.284 56.3803 25.5655 55.8354 26.0728C55.6614 26.2585 55.5638 26.5085 55.5638 26.7691C55.5638 27.0296 55.6614 27.2797 55.8354 27.4653C56.0137 27.6447 56.2512 27.7449 56.4981 27.7449C56.745 27.7449 56.9825 27.6447 57.1608 27.4653Z" fill="#211715"/>
<path d="M29.6091 26.0728C29.0639 25.5662 28.3619 25.2851 27.634 25.2819C26.9061 25.2787 26.2019 25.5537 25.6527 26.0555C24.5678 27.0794 24.5936 28.873 24.766 30.2724C24.9254 31.7553 25.4335 33.1733 26.2446 34.3986C27.084 35.608 28.3358 36.6343 29.8331 36.2878C29.9518 36.2534 30.0629 36.1948 30.16 36.1153C30.2571 36.0358 30.3384 35.937 30.3992 35.8246C30.4599 35.7121 30.499 35.5882 30.5142 35.4599C30.5294 35.3315 30.5203 35.2013 30.4876 35.0767C30.4548 34.952 30.399 34.8353 30.3234 34.7333C30.2477 34.6313 30.1536 34.546 30.0466 34.4821C29.9395 34.4183 29.8215 34.3773 29.6993 34.3613C29.5771 34.3454 29.4531 34.3549 29.3345 34.3893C28.6957 34.5369 28.0128 33.6544 27.704 33.1661C27.1925 32.3362 26.843 31.4078 26.6758 30.4348C26.5932 29.9687 26.5554 29.4952 26.5628 29.0212C26.5286 28.5813 26.5928 28.1392 26.7503 27.7301C26.8303 27.6013 26.9349 27.4914 27.0576 27.4074C27.1802 27.3234 27.3182 27.2672 27.4626 27.2423C27.6071 27.2174 27.7549 27.2244 27.8967 27.2627C28.0385 27.3011 28.1711 27.3701 28.2861 27.4653C28.4651 27.6434 28.7024 27.7426 28.949 27.7426C29.1956 27.7426 29.4328 27.6434 29.6119 27.4653C29.7857 27.2795 29.8831 27.0295 29.8831 26.769C29.8831 26.5086 29.7857 26.2585 29.6119 26.0728H29.6091Z" fill="#211715"/>
<path d="M40.3703 38.6193C41.226 39.0858 42.1795 39.3193 43.1433 39.2986C44.162 39.3393 45.1643 39.021 45.9909 38.3944C46.078 38.303 46.147 38.1944 46.1942 38.075C46.2413 37.9555 46.2655 37.8275 46.2655 37.6982C46.2655 37.5689 46.2413 37.4408 46.1942 37.3213C46.147 37.2019 46.078 37.0933 45.9909 37.0019C45.8115 36.8246 45.5744 36.7258 45.328 36.7258C45.0816 36.7258 44.8445 36.8246 44.6651 37.0019C44.9884 36.7376 44.6477 37.0019 44.5451 37.0566C44.4659 37.1004 44.2517 37.1698 44.5451 37.0664C44.4692 37.0935 44.3956 37.1269 44.3192 37.1525C44.2255 37.185 44.1256 37.2126 44.0272 37.2367C43.9124 37.2494 43.7988 37.272 43.6874 37.3041C43.7812 37.2608 43.836 37.2854 43.694 37.3002C43.6317 37.3066 43.5698 37.312 43.5065 37.3164C43.357 37.3268 43.2075 37.3307 43.0576 37.3297C42.9235 37.3297 42.7895 37.3246 42.6555 37.3145C42.593 37.3102 42.5316 37.3048 42.4713 37.2982C42.4366 37.2948 42.4015 37.2909 42.3668 37.2859C42.2932 37.2766 42.3199 37.2805 42.4488 37.2977C42.3954 37.3248 42.206 37.2525 42.1465 37.2382C42.05 37.2162 41.9541 37.1901 41.8588 37.1599C41.7763 37.1338 41.6957 37.1028 41.6141 37.0738C41.4018 36.997 41.8086 37.1722 41.6141 37.0762C41.5129 37.026 41.4129 36.9737 41.3142 36.9192C41.1 36.7967 40.8489 36.7667 40.614 36.8356C40.3791 36.9044 40.179 37.0667 40.0562 37.2879C39.9334 37.5092 39.8975 37.772 39.9561 38.0205C40.0148 38.2691 40.1633 38.4839 40.3703 38.6193Z" fill="#211715"/>
<path d="M42.5538 31.9144C42.6757 32.3765 42.7734 32.8453 42.8462 33.3187L42.8115 33.0573C42.8203 33.1216 42.822 33.1866 42.8167 33.2513L42.8504 32.9894C42.8461 33.019 42.8392 33.0482 42.8298 33.0765L42.9235 32.8412C42.9157 32.861 42.9058 32.8798 42.894 32.8974L43.0407 32.698C43.0278 32.7148 43.0132 32.73 42.9971 32.7433L43.1869 32.5897C43.1528 32.6116 43.1174 32.6311 43.081 32.6483L43.3045 32.5498C43.2472 32.5752 43.1873 32.5936 43.126 32.6045L43.3753 32.569C43.3197 32.5759 43.2636 32.5759 43.208 32.569L43.4569 32.604C43.3936 32.5946 43.3317 32.5784 43.2694 32.5695C43.1482 32.5285 43.0186 32.5226 42.8945 32.5523C42.7704 32.558 42.6501 32.5983 42.5458 32.669C42.3312 32.8008 42.1752 33.0167 42.1122 33.2692C42.0492 33.5218 42.0843 33.7903 42.2098 34.0157C42.269 34.127 42.3492 34.2246 42.4455 34.3023C42.5418 34.3801 42.6521 34.4365 42.7698 34.468C42.9357 34.4916 43.0979 34.5355 43.2661 34.5433C43.5308 34.5443 43.7917 34.4775 44.0263 34.3489C44.1789 34.2732 44.3138 34.1631 44.4213 34.0265C44.5289 33.8899 44.6065 33.7301 44.6486 33.5584C44.7045 33.2873 44.7023 33.0065 44.6421 32.7364C44.5694 32.2836 44.4701 31.8352 44.3609 31.3912C44.2938 31.1441 44.1398 30.933 43.9302 30.8005C43.7113 30.6689 43.4517 30.6335 43.208 30.7021C42.9723 30.7714 42.7713 30.9341 42.6475 31.1559C42.5251 31.3868 42.4915 31.6583 42.5538 31.9144Z" fill="#211715"/>
<path d="M35.7911 27.9019C35.5783 28.6284 35.717 30.3 37.0274 30.4422C38.7614 30.4309 38.8519 28.4103 38.2689 27.4603C37.7913 26.6826 36.3877 26.3593 35.7911 27.9019Z" fill="#211715"/>
<path d="M50.2097 27.9019C50.423 28.6284 50.2842 30.3 48.9739 30.4422C47.2399 30.4309 47.1494 28.4103 47.7324 27.4603C48.2095 26.6826 49.6136 26.3593 50.2097 27.9019Z" fill="#211715"/>
<path d="M42.0331 28.5939C42.2238 28.5443 42.4168 28.5056 42.6114 28.4777L42.3621 28.5132C42.7997 28.4554 43.2426 28.4567 43.68 28.5171L43.4311 28.4817C43.6743 28.5175 43.9148 28.5709 44.1509 28.6416C44.2696 28.676 44.3936 28.6855 44.5158 28.6696C44.638 28.6537 44.756 28.6126 44.8631 28.5488C44.9701 28.4849 45.0642 28.3996 45.1399 28.2976C45.2155 28.1956 45.2713 28.0789 45.3041 27.9543C45.3368 27.8296 45.3459 27.6994 45.3307 27.5711C45.3155 27.4427 45.2764 27.3188 45.2157 27.2063C45.1549 27.0939 45.0736 26.9951 44.9765 26.9156C44.8794 26.8362 44.7683 26.7775 44.6496 26.7432C43.6331 26.4423 42.5595 26.4253 41.5349 26.6939C41.2963 26.7652 41.0939 26.932 40.9712 27.1585C40.8485 27.3849 40.8153 27.6529 40.8788 27.9048C40.9489 28.1539 41.1081 28.3649 41.323 28.4933C41.538 28.6218 41.792 28.6579 42.0317 28.5939H42.0331Z" fill="#211715"/>
<path d="M32.6966 26.406C32.2471 26.2969 31.7865 26.2473 31.3253 26.2583C31.0776 26.2628 30.8407 26.3659 30.6626 26.5468C30.4953 26.7372 30.3979 26.9839 30.388 27.2428C30.388 27.5039 30.4868 27.7543 30.6625 27.9389C30.8383 28.1235 31.0767 28.2272 31.3253 28.2272C31.5716 28.2192 31.8182 28.2322 32.0625 28.2661L31.8132 28.2311C31.9425 28.2498 32.0708 28.2741 32.1979 28.304C32.3192 28.3449 32.4487 28.3509 32.5729 28.3212C32.6968 28.3156 32.817 28.2753 32.9211 28.2046C33.0279 28.145 33.1184 28.0578 33.184 27.9511C33.2666 27.8567 33.3245 27.7413 33.3518 27.6164C33.3845 27.4916 33.3935 27.3613 33.3782 27.2329C33.3629 27.1045 33.3237 26.9805 33.2627 26.8681C33.2018 26.7556 33.1203 26.6569 33.023 26.5775C32.9257 26.4981 32.8145 26.4397 32.6957 26.4055L32.6966 26.406Z" fill="#211715"/>
<path d="M53.8343 28.3044C53.9611 28.2746 54.0894 28.2503 54.219 28.2316L53.9697 28.2665C54.214 28.2327 54.4606 28.2197 54.7069 28.2276C54.8323 28.2334 54.957 28.2042 55.0682 28.143C55.2356 28.0658 55.3786 27.9402 55.4805 27.7809C55.5825 27.6216 55.6393 27.4351 55.6442 27.2432C55.6432 26.9823 55.5446 26.7323 55.3696 26.5472C55.1904 26.3681 54.9542 26.2653 54.7069 26.2588C54.515 26.2521 54.3229 26.2585 54.1319 26.278C53.864 26.3034 53.598 26.3461 53.3351 26.4059C53.2161 26.4346 53.1063 26.4953 53.0165 26.5822C52.9149 26.651 52.8318 26.7461 52.7751 26.8583C52.7077 26.9676 52.6694 27.0939 52.664 27.224C52.6358 27.3544 52.6414 27.4904 52.6804 27.6178C52.746 27.8658 52.9006 28.0775 53.1116 28.2084L53.3351 28.3069C53.4984 28.3536 53.6706 28.3536 53.8338 28.3069L53.8343 28.3044Z" fill="#211715"/>
<path d="M48.8853 31.3783C48.1975 31.3879 47.5181 31.2198 46.9066 30.8891C46.8555 30.8571 46.5425 30.6144 46.6686 30.7266C46.5395 30.6115 46.4192 30.4861 46.3086 30.3516C46.2866 30.3255 46.2051 30.2039 46.2993 30.3427C46.2502 30.2705 46.2033 30.1965 46.1587 30.1207C46.1216 30.0567 46.087 29.9913 46.0541 29.9238C46.0368 29.8894 45.9173 29.6073 45.9857 29.7855C45.7243 29.1538 45.6174 28.4635 45.6745 27.7773C45.6633 27.9476 45.6694 27.8004 45.6745 27.762C45.6919 27.6719 45.7144 27.5843 45.7392 27.4962C45.8151 27.227 45.6539 27.6439 45.7753 27.3978C45.8011 27.3441 45.8287 27.2905 45.8583 27.2388C45.9986 27.0207 46.1759 26.8315 46.3813 26.6806C47.0128 26.2871 47.7286 26.067 48.4626 26.0407C49.3165 25.9612 50.1765 26.0861 50.9778 26.4059C51.2077 26.5222 51.4247 26.6644 51.625 26.8302C51.6813 26.8839 51.9208 27.163 51.8327 27.0419C51.9373 27.1872 52.0258 27.3446 52.0965 27.511C52.0267 27.3476 52.1012 27.5312 52.1129 27.5755C52.1326 27.6503 52.1556 27.7231 52.1724 27.7999C52.1762 27.8166 52.2216 28.1203 52.1991 27.9166C52.2066 27.982 52.2104 28.0485 52.2132 28.1134C52.2204 28.327 52.2139 28.5407 52.194 28.7533C52.194 28.7706 52.1715 28.9468 52.1907 28.808C52.172 28.9438 52.1438 29.0797 52.1143 29.2131C52.071 29.4075 52.0128 29.5979 51.9404 29.7826C51.9967 29.6437 51.932 29.7924 51.9217 29.8136C51.8669 29.9273 51.8083 30.0395 51.7431 30.1473C51.7539 30.1296 51.5866 30.385 51.6607 30.2807C51.6972 30.2315 51.5299 30.4392 51.5008 30.4712C51.438 30.5406 51.372 30.6055 51.3045 30.6681C51.1639 30.799 51.3738 30.6297 51.2047 30.7537C50.5162 31.2225 49.7 31.4402 48.882 31.3734C47.6752 31.3562 47.6748 33.325 48.882 33.3423C50.9881 33.3723 52.9424 32.4445 53.748 30.3038C54.4693 28.3896 54.0761 26.1618 52.3993 24.9844C51.4751 24.4012 50.4203 24.0857 49.3422 24.0699C48.1705 23.9827 46.9962 24.1969 45.9211 24.694C45.0275 25.1113 44.3277 25.8833 43.9747 26.8411C43.7136 27.7978 43.7252 28.8139 44.008 29.7639C44.2519 30.8123 44.8377 31.738 45.6638 32.38C46.6209 33.0308 47.742 33.366 48.882 33.3423C50.0921 33.3856 50.0907 31.4167 48.8853 31.3783Z" fill="#211715"/>
<path d="M37.0747 33.3453C38.1097 33.3366 39.1252 33.0484 40.0235 32.5086C40.7938 31.9855 41.3825 31.215 41.7018 30.3118C42.0497 29.3635 42.1597 28.3372 42.0214 27.3314C41.9323 26.8464 41.7485 26.3861 41.4816 25.9795C41.2147 25.5728 40.8705 25.2287 40.4706 24.9688C39.5277 24.3726 38.4471 24.0596 37.3466 24.0641C36.1896 24.0038 35.0354 24.2306 33.9774 24.7261C33.0862 25.1554 32.3864 25.9285 32.0231 26.885C31.7178 27.8323 31.7005 28.856 31.9734 29.8142C32.2349 30.8837 32.8494 31.8211 33.7075 32.4593C34.7086 33.1284 35.8891 33.4392 37.0724 33.3453C38.275 33.301 38.2811 31.3322 37.0724 31.3765C36.6853 31.3992 36.2969 31.3773 35.9144 31.311C35.7437 31.2754 35.5752 31.2294 35.4096 31.1732C35.268 31.1324 35.1325 31.0711 35.007 30.991C34.7472 30.866 34.5186 30.6793 34.3392 30.4457C34.2994 30.3999 34.2595 30.3526 34.2225 30.3044C34.3387 30.4555 34.1653 30.2119 34.1588 30.2015C34.06 30.0427 33.9735 29.8758 33.9001 29.7024C33.9741 29.8791 33.8621 29.5828 33.8598 29.5759C33.8401 29.5134 33.8213 29.4504 33.804 29.3869C33.7495 29.1912 33.7081 28.9917 33.6803 28.7898C33.6868 28.8366 33.6948 28.9434 33.6775 28.7372C33.6681 28.6294 33.6606 28.5211 33.6578 28.4128C33.6578 28.3286 33.655 28.2445 33.6578 28.1598C33.6578 28.1165 33.7009 27.7966 33.6681 27.9866C33.6975 27.7243 33.783 27.4725 33.9181 27.2499C34.0532 27.0272 34.2345 26.8396 34.4484 26.7009C35.0769 26.298 35.7942 26.0733 36.5302 26.0487C37.393 25.9504 38.2656 26.071 39.075 26.4001C38.9812 26.3563 39.1321 26.4331 39.1359 26.4351C39.2254 26.4818 39.3135 26.5335 39.3993 26.5867C39.4823 26.6382 39.5625 26.6944 39.6397 26.755C39.6055 26.727 39.5356 26.6595 39.6678 26.7855C39.7353 26.8495 39.7981 26.917 39.8614 26.9854C40.0526 27.1926 39.8145 26.9022 39.9082 27.0385C39.9505 27.1002 39.9898 27.1641 40.0259 27.23C40.0544 27.2827 40.0816 27.3358 40.1065 27.3905C40.0705 27.292 40.0716 27.2976 40.1097 27.4072C40.1285 27.4648 40.1454 27.5229 40.1599 27.5819C40.1655 27.6056 40.21 27.898 40.188 27.6858C40.2021 27.8546 40.2043 28.0242 40.1946 28.1933C40.1971 28.5344 40.1544 28.8741 40.0676 29.2028C40.0223 29.4018 39.9634 29.597 39.8913 29.7871C39.9063 29.7482 39.9616 29.6325 39.881 29.8023C39.8304 29.9096 39.7775 30.015 39.7179 30.1169C39.6884 30.1661 39.6575 30.2153 39.6242 30.2645C39.5605 30.3566 39.5591 30.363 39.6191 30.2773C39.5839 30.3226 39.5469 30.3674 39.5094 30.4107C39.4625 30.4649 39.4124 30.518 39.3608 30.5692C39.3346 30.5958 39.111 30.7897 39.2549 30.676C38.6122 31.139 37.8494 31.3832 37.0701 31.3755C36.8231 31.3809 36.5876 31.4863 36.413 31.6698C36.2383 31.8532 36.1379 32.1005 36.1327 32.3599C36.1348 32.6213 36.2349 32.8712 36.4112 33.0557C36.5875 33.2401 36.8259 33.3442 37.0747 33.3453Z" fill="#211715"/>
<path d="M29.9395 27.2235C30.0027 26.1293 29.9348 24.7654 30.373 23.7436C30.8843 22.5509 32.2204 22.2029 33.1094 21.408C34.1728 20.4565 34.6804 18.9843 35.5708 17.8808C36.2785 17.0026 37.6413 17.2099 38.58 17.4653C39.8342 17.8069 40.9566 18.531 42.1981 18.9164C43.6293 19.3594 45.1192 19.2565 46.5917 19.2339C48.0197 19.2117 49.4505 19.1955 50.8789 19.2299C51.4253 19.2274 51.971 19.2707 52.5108 19.3594C52.7356 19.3968 52.9569 19.4548 53.1721 19.5326C53.4143 19.6281 53.1749 19.5203 53.3787 19.6311C53.4078 19.6468 53.6304 19.8137 53.5025 19.7133C53.7012 19.8688 53.7087 20.0086 53.8024 20.2931C54.0025 20.8966 54.1947 21.503 54.3648 22.1173C54.7645 23.5757 55.0874 25.0361 55.3822 26.5211C55.6283 27.761 57.4354 27.2363 57.1898 25.9979C56.9011 24.5444 56.5848 23.117 56.1982 21.6885C55.9455 20.7533 55.7056 19.5789 55.1751 18.7579C54.5255 17.7523 53.382 17.4909 52.3027 17.3521C50.8675 17.2248 49.426 17.1919 47.9869 17.2537C46.3934 17.261 44.6566 17.5155 43.0937 17.1306C41.6957 16.7861 40.4664 15.9493 39.0801 15.5688C37.8147 15.2243 36.315 15.1076 35.1204 15.7701C33.7998 16.5016 33.1718 18.2214 32.3156 19.4224C31.8431 20.0849 31.1908 20.3876 30.5389 20.8158C29.8334 21.2477 29.2456 21.8631 28.832 22.6026C28.1192 23.9616 28.152 25.7149 28.0649 27.2235C27.9917 28.489 29.8668 28.4846 29.9395 27.2235Z" fill="#211715"/>
<path d="M111.114 119.626C113.322 117.54 116.143 116.126 118.877 114.974C121.101 114.052 123.383 113.291 125.705 112.695C126.877 112.386 126.379 110.487 125.207 110.796C122.762 111.423 120.363 112.235 118.029 113.224C115.099 114.487 112.162 115.993 109.788 118.234C108.889 119.083 110.218 120.472 111.114 119.626Z" fill="#211715"/>
<path d="M111.515 148.224C112.544 157.182 113.475 166.153 114.306 175.135C114.583 178.099 114.846 181.064 115.097 184.03C115.103 184.289 115.204 184.536 115.378 184.719C115.553 184.902 115.787 185.008 116.034 185.015C116.282 185.013 116.519 184.908 116.695 184.724C116.87 184.54 116.969 184.291 116.971 184.03C116.141 174.129 115.149 164.243 114.075 154.367C113.852 152.319 113.624 150.271 113.39 148.224C113.382 147.965 113.281 147.719 113.107 147.536C112.933 147.354 112.699 147.247 112.453 147.24C112.204 147.241 111.967 147.345 111.791 147.529C111.616 147.714 111.517 147.963 111.515 148.224Z" fill="#211715"/>
<path d="M93.5091 150.83C92.743 151.243 92.0789 151.838 91.5693 152.567C91.0371 153.245 90.7106 154.075 90.632 154.95C90.69 156.133 90.8534 157.308 91.1199 158.459C91.7029 161.48 92.4743 164.47 93.3343 167.417C94.1397 170.458 95.4095 173.342 97.0943 175.955C98.1102 177.582 99.4821 178.929 101.095 179.885C102.691 180.791 104.524 181.126 106.317 180.841C108.187 180.473 109.958 179.679 111.506 178.516C112.879 177.524 114.289 176.261 115.003 174.639C115.121 174.412 115.152 174.146 115.09 173.895C115.027 173.645 114.876 173.429 114.666 173.292C114.451 173.163 114.196 173.127 113.956 173.193C113.717 173.259 113.511 173.422 113.384 173.645C112.801 174.82 111.947 175.823 110.9 176.563C109.692 177.517 108.332 178.238 106.884 178.693C103.761 179.622 100.868 177.986 98.9984 175.37C97.3853 173.047 96.1622 170.452 95.3818 167.696C94.5739 165.02 93.8657 162.306 93.2673 159.571C93.1103 158.851 92.9617 158.13 92.83 157.405C92.7307 156.859 92.6149 156.156 92.5722 155.755C92.4677 155.259 92.5327 154.74 92.756 154.289C93.1265 153.525 93.7229 152.908 94.4558 152.53C95.529 151.952 94.5818 150.252 93.5096 150.83L93.5091 150.83Z" fill="#211715"/>
<path d="M124.143 112.328C125.206 114.538 126.869 116.367 128.923 117.583C131.266 118.893 133.875 119.589 136.529 119.613C141.709 119.761 146.841 118.521 151.439 116.011C153.396 114.937 155.249 113.665 156.97 112.211C157.144 112.026 157.242 111.776 157.242 111.515C157.242 111.255 157.144 111.005 156.97 110.819C156.791 110.641 156.554 110.541 156.307 110.541C156.06 110.541 155.823 110.641 155.644 110.819C152.465 113.472 148.816 115.434 144.908 116.591C142.652 117.248 140.327 117.606 137.986 117.657C135.529 117.706 132.972 117.446 130.716 116.343C128.569 115.316 126.821 113.549 125.763 111.334C125.228 110.199 123.61 111.195 124.145 112.328H124.143Z" fill="#211715"/>
<path d="M154.265 111.042C161.783 113.605 169.791 117.157 174.025 124.616C176.186 128.422 176.573 133.217 176.881 137.535C177.14 141.866 177.183 146.208 177.012 150.543C176.91 154.186 176.756 157.828 176.416 161.455C176.085 164.996 175.666 168.697 174.432 172.038C172.961 176.017 169.701 179.104 165.612 179.676C163.595 179.967 161.541 179.654 159.686 178.773C158.601 178.21 157.582 177.516 156.649 176.706C154.137 174.553 151.76 172.232 149.532 169.758C147.47 167.533 145.459 165.247 143.541 162.883C143.233 162.504 142.929 162.122 142.629 161.736C142.453 161.553 142.215 161.45 141.967 161.45C141.718 161.45 141.48 161.553 141.304 161.736C141.133 161.923 141.038 162.173 141.038 162.432C141.038 162.691 141.133 162.941 141.304 163.128C143.03 165.361 144.889 167.488 146.77 169.576C149.127 172.249 151.623 174.784 154.246 177.168C155.303 178.142 156.428 179.031 157.612 179.829C159.274 180.889 161.15 181.526 163.088 181.688C165.266 181.876 167.453 181.466 169.435 180.498C171.416 179.53 173.124 178.037 174.39 176.167C176.62 172.967 177.363 168.94 177.878 165.092C178.377 161.129 178.686 157.143 178.803 153.149C178.952 149.112 179.079 145.065 178.94 141.028C178.85 138.383 178.647 135.745 178.331 133.116C178.086 130.827 177.596 128.575 176.868 126.402C175.535 122.601 172.838 119.219 169.809 116.742C166.358 113.918 162.31 111.997 158.229 110.404C157.083 109.957 155.927 109.541 154.765 109.144C153.614 108.751 153.124 110.652 154.266 111.043L154.265 111.042Z" fill="#211715"/>
<path d="M93.5606 123.056C92.7325 120.489 91.7554 117.318 91.0768 114.929C90.9816 114.594 90.9508 114.242 90.9862 113.894C91.0215 113.546 91.1223 113.209 91.2827 112.902C91.4431 112.595 91.6599 112.325 91.9205 112.107C92.1812 111.889 92.4804 111.727 92.801 111.632C96.5319 110.514 101.935 108.951 105.527 107.92C106.155 107.739 106.825 107.821 107.397 108.148C107.968 108.475 108.397 109.023 108.592 109.675C110.367 115.589 114.427 128.936 116.271 134.922C116.474 135.58 116.423 136.295 116.13 136.914C115.837 137.533 115.325 138.006 114.703 138.233C111.834 139.288 106.817 141.023 105.561 141.458L93.5606 123.056Z" fill="#B3B3B3"/>
<path d="M94.4642 122.795C93.6155 120.159 92.7771 117.514 92.0314 114.844C91.7615 113.875 92.0783 112.911 93.0507 112.58C94.1755 112.197 95.334 111.901 96.4719 111.567C98.8995 110.854 101.329 110.148 103.76 109.45L105.319 109.002C105.773 108.805 106.277 108.774 106.75 108.913C107.588 109.251 107.745 110.128 107.987 110.932C110.396 118.935 112.829 126.931 115.286 134.918C115.606 135.959 115.365 136.913 114.327 137.333C113.249 137.77 112.131 138.126 111.034 138.514C109.129 139.188 107.221 139.854 105.312 140.513C104.171 140.907 104.66 142.81 105.81 142.411C107.665 141.768 109.519 141.121 111.372 140.47C112.437 140.094 113.5 139.716 114.561 139.33C115.78 138.887 116.773 138.158 117.178 136.807C117.514 135.688 117.174 134.662 116.85 133.601C116.561 132.658 116.272 131.714 115.983 130.77C115.28 128.472 114.578 126.172 113.878 123.871C112.524 119.425 111.175 114.977 109.832 110.527C109.495 109.406 109.204 108.32 108.264 107.578C107.212 106.748 106.039 106.757 104.823 107.106C102.212 107.856 99.6016 108.612 96.9931 109.374C95.5651 109.792 94.1343 110.203 92.711 110.639C92.0237 110.82 91.4042 111.214 90.933 111.77C90.4619 112.326 90.1609 113.018 90.0692 113.756C90.0262 114.491 90.1329 115.227 90.3822 115.915C90.6097 116.701 90.842 117.485 91.0791 118.267C91.5906 119.957 92.117 121.642 92.6585 123.322C93.0428 124.516 94.8541 124.003 94.4661 122.798L94.4642 122.795Z" fill="#211715"/>
<path d="M95.8524 116.242C96.665 115.991 97.4795 115.744 98.2936 115.497C98.5285 115.426 98.7293 115.265 98.856 115.045C98.9502 114.876 98.9942 114.681 98.9825 114.486C98.9708 114.29 98.9038 114.103 98.7901 113.948C98.6764 113.792 98.5212 113.676 98.3444 113.614C98.1675 113.552 97.977 113.547 97.7973 113.599C96.9832 113.845 96.1692 114.091 95.3561 114.343C95.1222 114.415 94.9225 114.577 94.796 114.796C94.7018 114.965 94.6578 115.16 94.6695 115.355C94.6812 115.551 94.7482 115.738 94.8619 115.893C94.9756 116.049 95.1308 116.165 95.3076 116.227C95.4845 116.289 95.675 116.294 95.8547 116.242H95.8524Z" fill="#211715"/>
<path d="M93.7776 132.745C94.8319 131.708 95.9429 130.737 97.1051 129.836C98.2804 129.003 99.5186 128.272 100.807 127.651C101.452 127.329 102.119 127.061 102.804 126.85C103.424 126.61 104.085 126.508 104.745 126.549C104.934 126.578 105.109 126.675 105.24 126.822C105.371 126.969 105.45 127.158 105.465 127.359C105.562 127.974 105.055 128.416 104.687 128.813C103.847 129.723 105.171 131.117 106.013 130.205C106.663 129.502 107.26 128.768 107.344 127.75C107.395 126.911 107.128 126.084 106.602 125.45C105.421 124.049 103.274 124.6 101.822 125.111C100.046 125.776 98.3474 126.651 96.7602 127.72C95.2289 128.801 93.7874 130.016 92.4514 131.352C91.5445 132.192 92.8731 133.58 93.7767 132.745L93.7776 132.745Z" fill="#211715"/>
<path d="M97.3694 135.756C98.2453 134.93 99.0814 134.047 100.011 133.286C101.108 132.412 102.308 131.689 103.58 131.137C104.172 130.865 104.786 130.653 105.416 130.503C105.617 130.436 105.832 130.433 106.036 130.493C106.239 130.553 106.421 130.673 106.56 130.84C107.247 131.865 105.653 132.916 105.047 133.486C104.148 134.335 105.477 135.723 106.373 134.879C107.606 133.717 109.105 132.414 108.429 130.446C108.302 130.053 108.095 129.693 107.822 129.394C107.548 129.094 107.216 128.86 106.847 128.71C106.045 128.429 105.174 128.444 104.381 128.754C102.681 129.281 101.073 130.093 99.6189 131.158C98.3674 132.151 97.1737 133.221 96.044 134.364C95.1447 135.213 96.4738 136.601 97.3694 135.756Z" fill="#211715"/>
<path d="M100.766 139.568C101.504 138.714 102.299 137.916 103.145 137.182C104.094 136.266 105.182 135.523 106.365 134.984C106.571 134.882 106.797 134.827 107.025 134.825C106.898 134.817 107.191 134.874 107.169 134.861C107.224 134.903 107.276 134.948 107.325 134.998C107.307 134.975 107.458 135.24 107.408 135.122C107.455 135.241 107.488 135.366 107.506 135.494C107.522 135.675 107.519 135.856 107.497 136.036C107.483 136.185 107.418 136.324 107.314 136.426C107.134 136.648 106.952 136.869 106.769 137.087C106.4 137.534 106.028 137.978 105.655 138.42C104.691 139.566 103.728 140.712 102.777 141.869C102.607 142.057 102.512 142.306 102.512 142.565C102.512 142.824 102.607 143.074 102.777 143.261C102.954 143.444 103.192 143.546 103.439 143.546C103.687 143.546 103.925 143.444 104.102 143.261C105.079 142.073 106.07 140.899 107.058 139.72C107.482 139.215 107.905 138.708 108.327 138.199C108.833 137.7 109.185 137.054 109.34 136.343C109.574 134.763 108.807 132.996 107.13 132.863C106.361 132.871 105.608 133.092 104.946 133.503C104.23 133.888 103.551 134.345 102.918 134.867C101.667 135.858 100.503 136.965 99.4399 138.175C99.2689 138.362 99.1735 138.612 99.1735 138.871C99.1735 139.131 99.2689 139.38 99.4399 139.567C99.617 139.749 99.855 139.851 100.103 139.851C100.351 139.851 100.589 139.749 100.766 139.567V139.568Z" fill="#211715"/>
<path d="M94.0429 132.296C95.5885 129.975 97.1156 127.64 98.624 125.291C99.3068 124.234 100.124 123.088 100.044 121.733C99.9872 121.089 99.7117 120.487 99.2678 120.039C98.8239 119.59 98.2413 119.325 97.6262 119.29C96.2751 119.241 95.3373 119.889 94.4623 120.895C93.5044 121.997 92.6032 123.148 91.7381 124.331C90.8945 125.482 90.094 126.668 89.3142 127.868C88.6532 128.795 88.1607 129.842 87.8614 130.957C87.6038 132.078 87.4667 133.226 87.4527 134.379C87.3918 135.58 87.4989 136.783 87.7704 137.95C88.1545 139.158 88.7196 140.293 89.4445 141.314C90.0247 142.2 90.5585 143.112 91.1532 143.988C92.4977 145.967 94.0148 147.92 94.4989 150.357C94.7449 151.596 94.4652 153.007 95.0974 154.14C95.7413 155.294 97.1773 155.55 98.347 155.516C99.7517 155.442 101.123 155.042 102.363 154.345C103.474 153.751 104.857 152.868 105.547 151.744C105.908 151.005 106.118 150.193 106.162 149.363C106.277 148.605 106.345 147.84 106.367 147.073C106.369 145.477 106.125 143.892 105.643 142.379C105.282 141.175 103.471 141.69 103.836 142.902C104.53 145.185 104.647 147.618 104.174 149.962C104.104 150.444 103.86 150.88 103.491 151.178C103.093 151.551 102.663 151.886 102.207 152.179C101.359 152.74 100.429 153.151 99.4544 153.393C98.7782 153.555 97.3418 153.819 96.7798 153.228C96.5127 152.947 96.5455 152.403 96.5315 152.042C96.5162 151.429 96.4633 150.817 96.373 150.21C96.03 148.045 94.9357 146.163 93.7392 144.402C92.636 142.778 91.5365 141.154 90.5228 139.465C89.9327 138.571 89.556 137.54 89.4243 136.46C89.3314 135.579 89.3068 134.692 89.3507 133.807C89.3939 132.812 89.5562 131.828 89.8339 130.876C90.1984 129.954 90.6877 129.092 91.2867 128.317C92.6546 126.202 94.1577 124.187 95.7858 122.286C96.0781 121.838 96.497 121.498 96.9832 121.314C97.3938 121.215 97.8573 121.181 98.0949 121.618C98.2772 121.953 98.0916 122.43 97.9543 122.75C97.6635 123.323 97.3267 123.869 96.9476 124.382C95.452 126.697 93.9437 129.002 92.4228 131.299C91.7296 132.34 93.3544 133.325 94.0415 132.293L94.0429 132.296Z" fill="#211715"/>
<path d="M138.909 157.953C139.335 158.161 139.761 158.372 140.191 158.57C140.411 158.672 140.631 158.772 140.854 158.866C140.943 158.904 141.033 158.941 141.123 158.978C141.34 159.069 141.011 158.918 141.131 158.982C141.184 159.011 141.24 159.036 141.293 159.065C141.388 159.118 141.48 159.176 141.569 159.239C141.669 159.309 141.472 159.13 141.546 159.228C141.582 159.277 141.632 159.316 141.671 159.361C141.687 159.379 141.765 159.452 141.765 159.475C141.7 159.384 141.687 159.366 141.728 159.425C141.742 159.446 141.756 159.466 141.77 159.486C141.833 159.577 141.893 159.671 141.954 159.764C142.25 160.215 142.573 160.645 142.919 161.055C143.095 161.238 143.333 161.341 143.581 161.341C143.83 161.341 144.068 161.238 144.244 161.055C144.415 160.867 144.51 160.618 144.51 160.359C144.51 160.099 144.415 159.85 144.244 159.663C144.095 159.485 143.953 159.303 143.812 159.119C143.724 159.005 143.943 159.306 143.797 159.099C143.767 159.055 143.736 159.012 143.704 158.968C143.631 158.862 143.563 158.754 143.491 158.647C143.193 158.139 142.786 157.712 142.302 157.401C142.059 157.269 141.81 157.153 141.554 157.053L141.278 156.938C141.164 156.888 141.307 156.949 141.342 156.967C141.295 156.943 141.245 156.922 141.197 156.9C140.746 156.693 140.3 156.473 139.854 156.255C139.638 156.129 139.384 156.096 139.146 156.162C138.907 156.227 138.701 156.387 138.572 156.608C138.449 156.834 138.416 157.102 138.479 157.353C138.541 157.605 138.696 157.821 138.908 157.955L138.909 157.953Z" fill="#211715"/>
<path d="M132.324 138.843C129.765 137.457 127.08 136.363 124.498 135.036C124.057 134.81 123.249 134.478 123.128 133.918C123.094 133.713 123.132 133.503 123.234 133.326C123.336 133.149 123.495 133.016 123.683 132.952C124.274 132.8 124.892 132.816 125.476 132.997C126.281 133.193 127.075 133.438 127.853 133.73C130.835 134.781 133.756 136.026 136.659 137.297C138.091 137.923 139.451 138.417 140.518 139.654C141.589 140.948 142.572 142.319 143.461 143.757C144.475 145.329 145.38 146.962 146.276 148.609C147.12 150.261 148.16 151.792 149.372 153.167C150.216 154.075 151.542 152.682 150.698 151.775C149.555 150.461 148.578 148.998 147.792 147.422C146.879 145.738 145.942 144.074 144.897 142.479C143.928 140.907 142.838 139.42 141.639 138.033C140.395 136.674 138.775 136.106 137.157 135.398C133.931 133.986 130.682 132.579 127.343 131.487C125.894 131.013 124.029 130.477 122.601 131.305C122.271 131.504 121.985 131.775 121.764 132.099C121.542 132.424 121.389 132.795 121.315 133.187C121.241 133.578 121.249 133.982 121.336 134.371C121.424 134.76 121.59 135.124 121.823 135.44C122.465 136.143 123.253 136.682 124.125 137.015C124.878 137.37 125.634 137.719 126.388 138.073C128.067 138.861 129.745 139.658 131.38 140.544C132.45 141.124 133.4 139.426 132.326 138.844L132.324 138.843Z" fill="#211715"/>
<path d="M131.701 139.081C130.796 139.901 129.917 140.75 129.061 141.626C128.283 142.425 127.374 143.25 126.83 144.254C126.586 144.704 126.441 145.207 126.406 145.724C126.371 146.241 126.447 146.76 126.629 147.242C127.041 148.19 127.769 148.946 128.675 149.369C128.891 149.494 129.145 149.528 129.384 149.462C129.623 149.396 129.828 149.236 129.958 149.015C130.081 148.789 130.114 148.522 130.051 148.27C129.988 148.018 129.834 147.802 129.621 147.669C129.306 147.517 129.013 147.32 128.75 147.082C128.581 146.934 128.45 146.745 128.366 146.532C128.271 146.228 128.258 145.903 128.329 145.592C128.399 145.281 128.551 144.996 128.766 144.77C130.081 143.227 131.505 141.791 133.026 140.473C133.2 140.287 133.297 140.037 133.297 139.777C133.297 139.517 133.2 139.267 133.026 139.081C132.848 138.901 132.611 138.801 132.364 138.801C132.116 138.801 131.879 138.901 131.701 139.081Z" fill="#211715"/>
<path d="M134.267 142.539C133.228 143.271 132.267 144.119 131.4 145.066C130.58 145.971 129.644 147.035 129.223 148.222C129.007 148.785 128.948 149.402 129.053 149.999C129.159 150.596 129.424 151.149 129.819 151.594C130.604 152.37 131.649 152.789 132.727 152.759C132.976 152.759 133.214 152.655 133.39 152.471C133.566 152.286 133.664 152.036 133.664 151.775C133.664 151.514 133.566 151.263 133.39 151.079C133.214 150.894 132.976 150.79 132.727 150.79C132.347 150.788 131.971 150.714 131.616 150.57C131.729 150.619 131.579 150.546 131.54 150.521C131.475 150.482 131.41 150.442 131.348 150.398C131.131 150.246 131.449 150.512 131.265 150.326C131.214 150.274 131.164 150.22 131.115 150.166C131.036 150.082 130.975 149.982 130.934 149.871C130.894 149.761 130.876 149.644 130.881 149.526C130.898 149.105 131.029 148.699 131.259 148.354C132.309 146.725 133.652 145.327 135.212 144.239C135.422 144.103 135.575 143.887 135.637 143.636C135.7 143.385 135.668 143.119 135.549 142.892C135.422 142.668 135.216 142.506 134.976 142.44C134.736 142.374 134.482 142.409 134.267 142.539Z" fill="#211715"/>
<path d="M136.804 145.392L134.679 147.651C133.998 148.318 133.354 149.027 132.752 149.773C131.533 151.42 132.092 153.329 133.227 154.824C134.108 156.054 135.304 156.996 136.676 157.539C138.035 158.031 140.209 158.228 141.046 156.702C141.254 156.288 141.353 155.822 141.333 155.354C141.313 154.886 141.175 154.431 140.932 154.038C140.678 153.643 140.362 153.295 139.999 153.009C139.808 152.845 139.613 152.688 139.429 152.517C139.365 152.458 139.302 152.397 139.242 152.335C139.181 152.272 139.113 152.2 139.054 152.128C138.951 151.997 138.962 152.039 139.085 152.255L138.957 152.752C139.236 152.341 139.567 151.973 139.941 151.657C140.788 150.753 139.463 149.359 138.616 150.265C138.073 150.845 137.184 151.495 137.203 152.389C137.221 153.218 137.99 153.821 138.546 154.293C138.858 154.559 139.627 155.073 139.468 155.622C139.348 156.036 138.622 155.913 138.32 155.894C137.218 155.789 136.189 155.273 135.418 154.44C134.648 153.661 133.384 152.267 134.149 151.086C134.709 150.35 135.331 149.666 136.005 149.044L138.13 146.785C138.978 145.882 137.653 144.489 136.804 145.393L136.804 145.392Z" fill="#211715"/>
<path d="M166.123 158.118C162.199 154.552 158.385 150.853 154.543 147.191C154.365 147.011 154.127 146.911 153.88 146.911C153.633 146.911 153.396 147.011 153.217 147.191C152.679 147.725 152.207 148.348 151.718 148.932C150.765 150.073 149.819 151.22 148.879 152.372C146.848 154.849 144.82 157.33 142.794 159.813C142.258 160.467 141.74 161.152 141.167 161.771C140.323 162.68 141.649 164.073 142.492 163.164C143.948 161.594 145.245 159.83 146.602 158.168C148.647 155.666 150.686 153.159 152.751 150.675C153.334 149.975 153.897 149.223 154.542 148.583H153.216C157.059 152.245 160.872 155.944 164.797 159.51C165.705 160.335 167.036 158.949 166.122 158.118H166.123Z" fill="#211715"/>
</svg>
